G04 #@! TF.FileFunction,Legend,Top*
%FSLAX46Y46*%
G04 Gerber Fmt 4.6, Leading zero omitted, Abs format (unit mm)*
G04 Created by KiCad (PCBNEW 4.0.6) date Wed Jun 28 23:47:14 2017*
%MOMM*%
%LPD*%
G01*
G04 APERTURE LIST*
%ADD10C,0.100000*%
%ADD11C,0.150000*%
%ADD12C,0.375000*%
%ADD13C,0.200000*%
%ADD14C,0.300000*%
%ADD15C,0.120000*%
%ADD16O,2.940000X1.924000*%
%ADD17R,2.000000X2.000000*%
%ADD18O,2.000000X2.000000*%
%ADD19O,3.000000X2.400000*%
%ADD20R,2.400000X3.000000*%
%ADD21O,2.400000X3.000000*%
G04 APERTURE END LIST*
D10*
D11*
X172156666Y-103322381D02*
X172156666Y-102322381D01*
X172490000Y-103036667D01*
X172823333Y-102322381D01*
X172823333Y-103322381D01*
X173442380Y-103322381D02*
X173347142Y-103274762D01*
X173299523Y-103227143D01*
X173251904Y-103131905D01*
X173251904Y-102846190D01*
X173299523Y-102750952D01*
X173347142Y-102703333D01*
X173442380Y-102655714D01*
X173585238Y-102655714D01*
X173680476Y-102703333D01*
X173728095Y-102750952D01*
X173775714Y-102846190D01*
X173775714Y-103131905D01*
X173728095Y-103227143D01*
X173680476Y-103274762D01*
X173585238Y-103322381D01*
X173442380Y-103322381D01*
X174061428Y-102655714D02*
X174442380Y-102655714D01*
X174204285Y-102322381D02*
X174204285Y-103179524D01*
X174251904Y-103274762D01*
X174347142Y-103322381D01*
X174442380Y-103322381D01*
X174918571Y-103322381D02*
X174823333Y-103274762D01*
X174775714Y-103227143D01*
X174728095Y-103131905D01*
X174728095Y-102846190D01*
X174775714Y-102750952D01*
X174823333Y-102703333D01*
X174918571Y-102655714D01*
X175061429Y-102655714D01*
X175156667Y-102703333D01*
X175204286Y-102750952D01*
X175251905Y-102846190D01*
X175251905Y-103131905D01*
X175204286Y-103227143D01*
X175156667Y-103274762D01*
X175061429Y-103322381D01*
X174918571Y-103322381D01*
X175680476Y-103322381D02*
X175680476Y-102655714D01*
X175680476Y-102846190D02*
X175728095Y-102750952D01*
X175775714Y-102703333D01*
X175870952Y-102655714D01*
X175966191Y-102655714D01*
X167957619Y-88828571D02*
X168100476Y-88876190D01*
X168148095Y-88923810D01*
X168195714Y-89019048D01*
X168195714Y-89161905D01*
X168148095Y-89257143D01*
X168100476Y-89304762D01*
X168005238Y-89352381D01*
X167624285Y-89352381D01*
X167624285Y-88352381D01*
X167957619Y-88352381D01*
X168052857Y-88400000D01*
X168100476Y-88447619D01*
X168148095Y-88542857D01*
X168148095Y-88638095D01*
X168100476Y-88733333D01*
X168052857Y-88780952D01*
X167957619Y-88828571D01*
X167624285Y-88828571D01*
X169052857Y-89352381D02*
X169052857Y-88828571D01*
X169005238Y-88733333D01*
X168910000Y-88685714D01*
X168719523Y-88685714D01*
X168624285Y-88733333D01*
X169052857Y-89304762D02*
X168957619Y-89352381D01*
X168719523Y-89352381D01*
X168624285Y-89304762D01*
X168576666Y-89209524D01*
X168576666Y-89114286D01*
X168624285Y-89019048D01*
X168719523Y-88971429D01*
X168957619Y-88971429D01*
X169052857Y-88923810D01*
X169386190Y-88685714D02*
X169767142Y-88685714D01*
X169529047Y-88352381D02*
X169529047Y-89209524D01*
X169576666Y-89304762D01*
X169671904Y-89352381D01*
X169767142Y-89352381D01*
X169957619Y-88685714D02*
X170338571Y-88685714D01*
X170100476Y-88352381D02*
X170100476Y-89209524D01*
X170148095Y-89304762D01*
X170243333Y-89352381D01*
X170338571Y-89352381D01*
X190150953Y-105862381D02*
X189674762Y-105862381D01*
X189674762Y-104862381D01*
X190436667Y-104957619D02*
X190484286Y-104910000D01*
X190579524Y-104862381D01*
X190817620Y-104862381D01*
X190912858Y-104910000D01*
X190960477Y-104957619D01*
X191008096Y-105052857D01*
X191008096Y-105148095D01*
X190960477Y-105290952D01*
X190389048Y-105862381D01*
X191008096Y-105862381D01*
X191484286Y-105862381D02*
X191674762Y-105862381D01*
X191770001Y-105814762D01*
X191817620Y-105767143D01*
X191912858Y-105624286D01*
X191960477Y-105433810D01*
X191960477Y-105052857D01*
X191912858Y-104957619D01*
X191865239Y-104910000D01*
X191770001Y-104862381D01*
X191579524Y-104862381D01*
X191484286Y-104910000D01*
X191436667Y-104957619D01*
X191389048Y-105052857D01*
X191389048Y-105290952D01*
X191436667Y-105386190D01*
X191484286Y-105433810D01*
X191579524Y-105481429D01*
X191770001Y-105481429D01*
X191865239Y-105433810D01*
X191912858Y-105386190D01*
X191960477Y-105290952D01*
X192293810Y-104862381D02*
X192912858Y-104862381D01*
X192579524Y-105243333D01*
X192722382Y-105243333D01*
X192817620Y-105290952D01*
X192865239Y-105338571D01*
X192912858Y-105433810D01*
X192912858Y-105671905D01*
X192865239Y-105767143D01*
X192817620Y-105814762D01*
X192722382Y-105862381D01*
X192436667Y-105862381D01*
X192341429Y-105814762D01*
X192293810Y-105767143D01*
X193341429Y-105862381D02*
X193341429Y-104862381D01*
X193579524Y-104862381D01*
X193722382Y-104910000D01*
X193817620Y-105005238D01*
X193865239Y-105100476D01*
X193912858Y-105290952D01*
X193912858Y-105433810D01*
X193865239Y-105624286D01*
X193817620Y-105719524D01*
X193722382Y-105814762D01*
X193579524Y-105862381D01*
X193341429Y-105862381D01*
D12*
X178498572Y-85832143D02*
X179641429Y-85832143D01*
D13*
X178435000Y-92710000D02*
X177800000Y-92710000D01*
X178435000Y-92710000D02*
X178435000Y-96520000D01*
X178435000Y-96520000D02*
X177800000Y-96520000D01*
X178435000Y-101600000D02*
X177800000Y-101600000D01*
X178435000Y-97790000D02*
X177800000Y-97790000D01*
X178435000Y-97790000D02*
X178435000Y-101600000D01*
D14*
X180447143Y-99587857D02*
X180661429Y-99659286D01*
X180732857Y-99730714D01*
X180804286Y-99873571D01*
X180804286Y-100087857D01*
X180732857Y-100230714D01*
X180661429Y-100302143D01*
X180518571Y-100373571D01*
X179947143Y-100373571D01*
X179947143Y-98873571D01*
X180447143Y-98873571D01*
X180590000Y-98945000D01*
X180661429Y-99016429D01*
X180732857Y-99159286D01*
X180732857Y-99302143D01*
X180661429Y-99445000D01*
X180590000Y-99516429D01*
X180447143Y-99587857D01*
X179947143Y-99587857D01*
X179982857Y-94230000D02*
X180697143Y-94230000D01*
X179840000Y-94658571D02*
X180340000Y-93158571D01*
X180840000Y-94658571D01*
D12*
X168338572Y-85832143D02*
X169481429Y-85832143D01*
X168910000Y-86403571D02*
X168910000Y-85260714D01*
D14*
X183397144Y-80617143D02*
X183611430Y-80688571D01*
X183968573Y-80688571D01*
X184111430Y-80617143D01*
X184182859Y-80545714D01*
X184254287Y-80402857D01*
X184254287Y-80260000D01*
X184182859Y-80117143D01*
X184111430Y-80045714D01*
X183968573Y-79974286D01*
X183682859Y-79902857D01*
X183540001Y-79831429D01*
X183468573Y-79760000D01*
X183397144Y-79617143D01*
X183397144Y-79474286D01*
X183468573Y-79331429D01*
X183540001Y-79260000D01*
X183682859Y-79188571D01*
X184040001Y-79188571D01*
X184254287Y-79260000D01*
X184682858Y-79188571D02*
X185540001Y-79188571D01*
X185111430Y-80688571D02*
X185111430Y-79188571D01*
X186040001Y-79902857D02*
X186540001Y-79902857D01*
X186754287Y-80688571D02*
X186040001Y-80688571D01*
X186040001Y-79188571D01*
X186754287Y-79188571D01*
X187397144Y-80688571D02*
X187397144Y-79188571D01*
X187897144Y-80260000D01*
X188397144Y-79188571D01*
X188397144Y-80688571D01*
X191111430Y-80545714D02*
X191040001Y-80617143D01*
X190825715Y-80688571D01*
X190682858Y-80688571D01*
X190468573Y-80617143D01*
X190325715Y-80474286D01*
X190254287Y-80331429D01*
X190182858Y-80045714D01*
X190182858Y-79831429D01*
X190254287Y-79545714D01*
X190325715Y-79402857D01*
X190468573Y-79260000D01*
X190682858Y-79188571D01*
X190825715Y-79188571D01*
X191040001Y-79260000D01*
X191111430Y-79331429D01*
X192397144Y-80688571D02*
X192397144Y-79902857D01*
X192325715Y-79760000D01*
X192182858Y-79688571D01*
X191897144Y-79688571D01*
X191754287Y-79760000D01*
X192397144Y-80617143D02*
X192254287Y-80688571D01*
X191897144Y-80688571D01*
X191754287Y-80617143D01*
X191682858Y-80474286D01*
X191682858Y-80331429D01*
X191754287Y-80188571D01*
X191897144Y-80117143D01*
X192254287Y-80117143D01*
X192397144Y-80045714D01*
X193111430Y-80688571D02*
X193111430Y-79688571D01*
X193111430Y-79831429D02*
X193182858Y-79760000D01*
X193325716Y-79688571D01*
X193540001Y-79688571D01*
X193682858Y-79760000D01*
X193754287Y-79902857D01*
X193754287Y-80688571D01*
X193754287Y-79902857D02*
X193825716Y-79760000D01*
X193968573Y-79688571D01*
X194182858Y-79688571D01*
X194325716Y-79760000D01*
X194397144Y-79902857D01*
X194397144Y-80688571D01*
X195111430Y-79688571D02*
X195111430Y-81188571D01*
X195111430Y-79760000D02*
X195254287Y-79688571D01*
X195540001Y-79688571D01*
X195682858Y-79760000D01*
X195754287Y-79831429D01*
X195825716Y-79974286D01*
X195825716Y-80402857D01*
X195754287Y-80545714D01*
X195682858Y-80617143D01*
X195540001Y-80688571D01*
X195254287Y-80688571D01*
X195111430Y-80617143D01*
X197540001Y-79331429D02*
X197611430Y-79260000D01*
X197754287Y-79188571D01*
X198111430Y-79188571D01*
X198254287Y-79260000D01*
X198325716Y-79331429D01*
X198397144Y-79474286D01*
X198397144Y-79617143D01*
X198325716Y-79831429D01*
X197468573Y-80688571D01*
X198397144Y-80688571D01*
X199325715Y-79188571D02*
X199468572Y-79188571D01*
X199611429Y-79260000D01*
X199682858Y-79331429D01*
X199754287Y-79474286D01*
X199825715Y-79760000D01*
X199825715Y-80117143D01*
X199754287Y-80402857D01*
X199682858Y-80545714D01*
X199611429Y-80617143D01*
X199468572Y-80688571D01*
X199325715Y-80688571D01*
X199182858Y-80617143D01*
X199111429Y-80545714D01*
X199040001Y-80402857D01*
X198968572Y-80117143D01*
X198968572Y-79760000D01*
X199040001Y-79474286D01*
X199111429Y-79331429D01*
X199182858Y-79260000D01*
X199325715Y-79188571D01*
X201254286Y-80688571D02*
X200397143Y-80688571D01*
X200825715Y-80688571D02*
X200825715Y-79188571D01*
X200682858Y-79402857D01*
X200540000Y-79545714D01*
X200397143Y-79617143D01*
X201754286Y-79188571D02*
X202754286Y-79188571D01*
X202111429Y-80688571D01*
D15*
X192770000Y-104260000D02*
X194540000Y-104260000D01*
X194540000Y-104260000D02*
X194540000Y-83700000D01*
X194540000Y-83700000D02*
X189000000Y-83700000D01*
X189000000Y-83700000D02*
X189000000Y-104260000D01*
X189000000Y-104260000D02*
X190770000Y-104260000D01*
X190770000Y-104260000D02*
G75*
G02X192770000Y-104260000I1000000J0D01*
G01*
X170970000Y-96520000D02*
X176970000Y-96520000D01*
X170970000Y-101700000D02*
X176970000Y-101700000D01*
X176970000Y-101700000D02*
X176970000Y-91340000D01*
X176970000Y-91340000D02*
X170970000Y-91340000D01*
X170970000Y-91340000D02*
X170970000Y-101700000D01*
X173736000Y-82959000D02*
X173736000Y-88959000D01*
X171096000Y-82959000D02*
X171096000Y-88959000D01*
X171096000Y-88959000D02*
X176376000Y-88959000D01*
X176376000Y-88959000D02*
X176376000Y-82959000D01*
X176376000Y-82959000D02*
X171096000Y-82959000D01*
%LPC*%
D16*
X157251400Y-99606100D03*
X157251400Y-97066100D03*
X157251400Y-94526100D03*
X157251400Y-89446100D03*
X157251400Y-86906100D03*
X205511400Y-117386100D03*
X205511400Y-114846100D03*
X205511400Y-112306100D03*
X205511400Y-109766100D03*
X205511400Y-107226100D03*
X205511400Y-104686100D03*
X205511400Y-102146100D03*
X205511400Y-99606100D03*
X205511400Y-95542100D03*
X205511400Y-93002100D03*
X205511400Y-90462100D03*
X205511400Y-87922100D03*
X205511400Y-85382100D03*
X205511400Y-82842100D03*
X205511400Y-80302100D03*
X205511400Y-77762100D03*
X157251400Y-91986100D03*
D17*
X195580000Y-102870000D03*
D18*
X187960000Y-85090000D03*
X195580000Y-100330000D03*
X187960000Y-87630000D03*
X195580000Y-97790000D03*
X187960000Y-90170000D03*
X195580000Y-95250000D03*
X187960000Y-92710000D03*
X195580000Y-92710000D03*
X187960000Y-95250000D03*
X195580000Y-90170000D03*
X187960000Y-97790000D03*
X195580000Y-87630000D03*
X187960000Y-100330000D03*
X195580000Y-85090000D03*
X187960000Y-102870000D03*
D19*
X173990000Y-100330000D03*
X173990000Y-97790000D03*
X173990000Y-95250000D03*
X173990000Y-92710000D03*
D20*
X172466000Y-85979000D03*
D21*
X175006000Y-85979000D03*
M02*
