G04 #@! TF.FileFunction,Legend,Bot*
%FSLAX46Y46*%
G04 Gerber Fmt 4.6, Leading zero omitted, Abs format (unit mm)*
G04 Created by KiCad (PCBNEW 4.0.6) date Wed Jun 28 23:47:14 2017*
%MOMM*%
%LPD*%
G01*
G04 APERTURE LIST*
%ADD10C,0.100000*%
%ADD11O,2.940000X1.924000*%
%ADD12R,2.000000X2.000000*%
%ADD13O,2.000000X2.000000*%
%ADD14O,3.000000X2.400000*%
%ADD15R,2.400000X3.000000*%
%ADD16O,2.400000X3.000000*%
G04 APERTURE END LIST*
D10*
%LPC*%
D11*
X157251400Y-99606100D03*
X157251400Y-97066100D03*
X157251400Y-94526100D03*
X157251400Y-89446100D03*
X157251400Y-86906100D03*
X205511400Y-117386100D03*
X205511400Y-114846100D03*
X205511400Y-112306100D03*
X205511400Y-109766100D03*
X205511400Y-107226100D03*
X205511400Y-104686100D03*
X205511400Y-102146100D03*
X205511400Y-99606100D03*
X205511400Y-95542100D03*
X205511400Y-93002100D03*
X205511400Y-90462100D03*
X205511400Y-87922100D03*
X205511400Y-85382100D03*
X205511400Y-82842100D03*
X205511400Y-80302100D03*
X205511400Y-77762100D03*
X157251400Y-91986100D03*
D12*
X195580000Y-102870000D03*
D13*
X187960000Y-85090000D03*
X195580000Y-100330000D03*
X187960000Y-87630000D03*
X195580000Y-97790000D03*
X187960000Y-90170000D03*
X195580000Y-95250000D03*
X187960000Y-92710000D03*
X195580000Y-92710000D03*
X187960000Y-95250000D03*
X195580000Y-90170000D03*
X187960000Y-97790000D03*
X195580000Y-87630000D03*
X187960000Y-100330000D03*
X195580000Y-85090000D03*
X187960000Y-102870000D03*
D14*
X173990000Y-100330000D03*
X173990000Y-97790000D03*
X173990000Y-95250000D03*
X173990000Y-92710000D03*
D15*
X172466000Y-85979000D03*
D16*
X175006000Y-85979000D03*
M02*
