G04 #@! TF.FileFunction,Copper,L1,Top,Signal*
%FSLAX46Y46*%
G04 Gerber Fmt 4.6, Leading zero omitted, Abs format (unit mm)*
G04 Created by KiCad (PCBNEW 4.0.6) date Wed Jun 28 23:47:14 2017*
%MOMM*%
%LPD*%
G01*
G04 APERTURE LIST*
%ADD10C,0.100000*%
%ADD11O,2.540000X1.524000*%
%ADD12R,1.600000X1.600000*%
%ADD13O,1.600000X1.600000*%
%ADD14O,2.600000X2.000000*%
%ADD15R,2.000000X2.600000*%
%ADD16O,2.000000X2.600000*%
%ADD17C,0.600000*%
%ADD18C,0.508000*%
%ADD19C,0.250000*%
%ADD20C,0.254000*%
G04 APERTURE END LIST*
D10*
D11*
X157251400Y-99606100D03*
X157251400Y-97066100D03*
X157251400Y-94526100D03*
X157251400Y-89446100D03*
X157251400Y-86906100D03*
X205511400Y-117386100D03*
X205511400Y-114846100D03*
X205511400Y-112306100D03*
X205511400Y-109766100D03*
X205511400Y-107226100D03*
X205511400Y-104686100D03*
X205511400Y-102146100D03*
X205511400Y-99606100D03*
X205511400Y-95542100D03*
X205511400Y-93002100D03*
X205511400Y-90462100D03*
X205511400Y-87922100D03*
X205511400Y-85382100D03*
X205511400Y-82842100D03*
X205511400Y-80302100D03*
X205511400Y-77762100D03*
X157251400Y-91986100D03*
D12*
X195580000Y-102870000D03*
D13*
X187960000Y-85090000D03*
X195580000Y-100330000D03*
X187960000Y-87630000D03*
X195580000Y-97790000D03*
X187960000Y-90170000D03*
X195580000Y-95250000D03*
X187960000Y-92710000D03*
X195580000Y-92710000D03*
X187960000Y-95250000D03*
X195580000Y-90170000D03*
X187960000Y-97790000D03*
X195580000Y-87630000D03*
X187960000Y-100330000D03*
X195580000Y-85090000D03*
X187960000Y-102870000D03*
D14*
X173990000Y-100330000D03*
X173990000Y-97790000D03*
X173990000Y-95250000D03*
X173990000Y-92710000D03*
D15*
X172466000Y-85979000D03*
D16*
X175006000Y-85979000D03*
D17*
X179070000Y-92710000D03*
X191770000Y-101600000D03*
X185420000Y-102870000D03*
X191770000Y-93345000D03*
X176530000Y-97790000D03*
X181610000Y-86360000D03*
X179070000Y-88900000D03*
X182880000Y-93980000D03*
X184150000Y-97790000D03*
X162560000Y-86360000D03*
X162560000Y-90170000D03*
X165100000Y-92710000D03*
X161290000Y-97790000D03*
X179705000Y-83820000D03*
X182245000Y-81280000D03*
X187325000Y-81280000D03*
X197485000Y-86360000D03*
X201930000Y-90170000D03*
X201930000Y-86995000D03*
X196215000Y-81915000D03*
X202565000Y-81915000D03*
X200025000Y-97790000D03*
X200025000Y-97790000D03*
X202565000Y-102870000D03*
X199390000Y-107950000D03*
X202565000Y-109220000D03*
X202565000Y-106045000D03*
X202565000Y-99695000D03*
X191135000Y-89535000D03*
X189865000Y-90170000D03*
X191135000Y-90805000D03*
X189865000Y-91440000D03*
X191135000Y-92075000D03*
X189865000Y-92710000D03*
X198120000Y-91440000D03*
X196850000Y-91440000D03*
X198120000Y-92710000D03*
X196850000Y-93980000D03*
X198120000Y-93980000D03*
X198120000Y-95250000D03*
X194310000Y-93980000D03*
X191135000Y-97790000D03*
X189865000Y-97790000D03*
X189865000Y-96520000D03*
X191135000Y-96520000D03*
X191135000Y-95250000D03*
X189865000Y-95250000D03*
X174625000Y-90170000D03*
X177165000Y-85725000D03*
X160020000Y-93980000D03*
X182880000Y-82550000D03*
D18*
X185420000Y-102870000D02*
X185420000Y-101600000D01*
X185420000Y-101600000D02*
X191770000Y-101600000D01*
X173990000Y-92710000D02*
X179070000Y-92710000D01*
D19*
X173990000Y-92710000D02*
X174290000Y-92710000D01*
D18*
X191135000Y-93980000D02*
X191770000Y-93345000D01*
X191135000Y-93980000D02*
X185420000Y-93980000D01*
X185420000Y-93980000D02*
X184150000Y-95250000D01*
X184150000Y-95250000D02*
X173990000Y-95250000D01*
X187960000Y-97790000D02*
X185420000Y-100330000D01*
X173990000Y-100330000D02*
X175798000Y-100330000D01*
X175798000Y-100330000D02*
X185420000Y-100330000D01*
X176530000Y-97790000D02*
X173990000Y-97790000D01*
D19*
X195580000Y-102870000D02*
X200660000Y-102870000D01*
X200660000Y-102870000D02*
X202476100Y-104686100D01*
X202476100Y-104686100D02*
X205511400Y-104686100D01*
X187960000Y-85090000D02*
X190500000Y-85090000D01*
X194310000Y-101600000D02*
X204965300Y-101600000D01*
X193040000Y-100330000D02*
X194310000Y-101600000D01*
X193040000Y-87630000D02*
X193040000Y-100330000D01*
X190500000Y-85090000D02*
X193040000Y-87630000D01*
X204965300Y-101600000D02*
X205511400Y-102146100D01*
X195580000Y-87630000D02*
X196850000Y-87630000D01*
X201930000Y-96024700D02*
X205511400Y-99606100D01*
X201930000Y-92710000D02*
X201930000Y-96024700D01*
X196850000Y-87630000D02*
X201930000Y-92710000D01*
X187960000Y-87630000D02*
X186690000Y-87630000D01*
X203200000Y-90690700D02*
X205511400Y-93002100D01*
X203200000Y-86360000D02*
X203200000Y-90690700D01*
X196850000Y-80010000D02*
X203200000Y-86360000D01*
X186690000Y-80010000D02*
X196850000Y-80010000D01*
X185420000Y-81280000D02*
X186690000Y-80010000D01*
X185420000Y-86360000D02*
X185420000Y-81280000D01*
X186690000Y-87630000D02*
X185420000Y-86360000D01*
D18*
X179070000Y-88900000D02*
X181610000Y-86360000D01*
X187960000Y-95250000D02*
X186690000Y-95250000D01*
X186690000Y-95250000D02*
X184150000Y-97790000D01*
X162560000Y-90170000D02*
X162560000Y-86360000D01*
X161290000Y-97790000D02*
X161290000Y-96520000D01*
X161290000Y-96520000D02*
X165100000Y-92710000D01*
X179705000Y-83820000D02*
X182245000Y-81280000D01*
X201930000Y-90170000D02*
X201295000Y-90170000D01*
X201295000Y-90170000D02*
X197485000Y-86360000D01*
X196850000Y-81915000D02*
X201930000Y-86995000D01*
X196215000Y-81915000D02*
X196850000Y-81915000D01*
X205511400Y-80302100D02*
X204177900Y-80302100D01*
X204177900Y-80302100D02*
X202565000Y-81915000D01*
X202565000Y-99695000D02*
X201930000Y-99695000D01*
X201930000Y-99695000D02*
X200025000Y-97790000D01*
X202565000Y-106045000D02*
X202565000Y-109220000D01*
X198120000Y-95250000D02*
X202565000Y-99695000D01*
X191135000Y-90805000D02*
X190500000Y-90805000D01*
X190500000Y-90805000D02*
X189865000Y-90170000D01*
X191135000Y-92075000D02*
X190500000Y-92075000D01*
X190500000Y-92075000D02*
X189865000Y-91440000D01*
X187960000Y-92710000D02*
X189865000Y-92710000D01*
X196850000Y-93980000D02*
X198120000Y-92710000D01*
X198120000Y-95250000D02*
X198120000Y-93980000D01*
X195580000Y-95250000D02*
X198120000Y-95250000D01*
X195580000Y-95250000D02*
X194310000Y-93980000D01*
X189865000Y-96520000D02*
X189865000Y-97790000D01*
X191135000Y-95250000D02*
X191135000Y-96520000D01*
X187960000Y-95250000D02*
X189865000Y-95250000D01*
X175006000Y-85979000D02*
X176911000Y-85979000D01*
X176911000Y-85979000D02*
X177165000Y-85725000D01*
X172466000Y-85979000D02*
X166751000Y-85979000D01*
X166751000Y-85979000D02*
X166370000Y-86360000D01*
X166370000Y-95250000D02*
X162013900Y-99606100D01*
X166370000Y-86360000D02*
X166370000Y-95250000D01*
X162013900Y-99606100D02*
X157251400Y-99606100D01*
X172466000Y-88646000D02*
X176784000Y-88646000D01*
X176784000Y-88646000D02*
X180340000Y-85090000D01*
X172466000Y-85979000D02*
X172466000Y-88646000D01*
X182880000Y-82550000D02*
X180340000Y-85090000D01*
X157251400Y-99606100D02*
X157759400Y-99606100D01*
D20*
G36*
X203675419Y-77227491D02*
X203569079Y-77762100D01*
X203675419Y-78296709D01*
X203978251Y-78749928D01*
X204414513Y-79041430D01*
X204351459Y-79060041D01*
X203925770Y-79404074D01*
X203664140Y-79884823D01*
X203649180Y-79959030D01*
X203771680Y-80175100D01*
X205384400Y-80175100D01*
X205384400Y-80155100D01*
X205638400Y-80155100D01*
X205638400Y-80175100D01*
X207251120Y-80175100D01*
X207373620Y-79959030D01*
X207358660Y-79884823D01*
X207097030Y-79404074D01*
X206671341Y-79060041D01*
X206608287Y-79041430D01*
X207044549Y-78749928D01*
X207347381Y-78296709D01*
X207453721Y-77762100D01*
X207347381Y-77227491D01*
X207135240Y-76910000D01*
X207570000Y-76910000D01*
X207570000Y-117815908D01*
X207110133Y-118275775D01*
X207347381Y-117920709D01*
X207453721Y-117386100D01*
X207347381Y-116851491D01*
X207044549Y-116398272D01*
X206622250Y-116116100D01*
X207044549Y-115833928D01*
X207347381Y-115380709D01*
X207453721Y-114846100D01*
X207347381Y-114311491D01*
X207044549Y-113858272D01*
X206622250Y-113576100D01*
X207044549Y-113293928D01*
X207347381Y-112840709D01*
X207453721Y-112306100D01*
X207347381Y-111771491D01*
X207044549Y-111318272D01*
X206622250Y-111036100D01*
X207044549Y-110753928D01*
X207347381Y-110300709D01*
X207453721Y-109766100D01*
X207347381Y-109231491D01*
X207044549Y-108778272D01*
X206622250Y-108496100D01*
X207044549Y-108213928D01*
X207347381Y-107760709D01*
X207453721Y-107226100D01*
X207347381Y-106691491D01*
X207044549Y-106238272D01*
X206622250Y-105956100D01*
X207044549Y-105673928D01*
X207347381Y-105220709D01*
X207453721Y-104686100D01*
X207347381Y-104151491D01*
X207044549Y-103698272D01*
X206622250Y-103416100D01*
X207044549Y-103133928D01*
X207347381Y-102680709D01*
X207453721Y-102146100D01*
X207347381Y-101611491D01*
X207044549Y-101158272D01*
X206622250Y-100876100D01*
X207044549Y-100593928D01*
X207347381Y-100140709D01*
X207453721Y-99606100D01*
X207347381Y-99071491D01*
X207044549Y-98618272D01*
X206591330Y-98315440D01*
X206056721Y-98209100D01*
X205189202Y-98209100D01*
X202690000Y-95709898D01*
X202690000Y-92710000D01*
X202632148Y-92419161D01*
X202467401Y-92172599D01*
X197387401Y-87092599D01*
X197140839Y-86927852D01*
X196850000Y-86870000D01*
X196792995Y-86870000D01*
X196622811Y-86615302D01*
X196240725Y-86360000D01*
X196622811Y-86104698D01*
X196933880Y-85639151D01*
X197043113Y-85090000D01*
X196933880Y-84540849D01*
X196622811Y-84075302D01*
X196157264Y-83764233D01*
X195608113Y-83655000D01*
X195551887Y-83655000D01*
X195002736Y-83764233D01*
X194537189Y-84075302D01*
X194226120Y-84540849D01*
X194116887Y-85090000D01*
X194226120Y-85639151D01*
X194537189Y-86104698D01*
X194919275Y-86360000D01*
X194537189Y-86615302D01*
X194226120Y-87080849D01*
X194116887Y-87630000D01*
X194226120Y-88179151D01*
X194537189Y-88644698D01*
X194919275Y-88900000D01*
X194537189Y-89155302D01*
X194226120Y-89620849D01*
X194116887Y-90170000D01*
X194226120Y-90719151D01*
X194537189Y-91184698D01*
X194941703Y-91454986D01*
X194724866Y-91557611D01*
X194348959Y-91972577D01*
X194188096Y-92360961D01*
X194310085Y-92583000D01*
X195453000Y-92583000D01*
X195453000Y-92563000D01*
X195707000Y-92563000D01*
X195707000Y-92583000D01*
X196849915Y-92583000D01*
X196971904Y-92360961D01*
X196811041Y-91972577D01*
X196435134Y-91557611D01*
X196218297Y-91454986D01*
X196622811Y-91184698D01*
X196933880Y-90719151D01*
X197043113Y-90170000D01*
X196933880Y-89620849D01*
X196622811Y-89155302D01*
X196240725Y-88900000D01*
X196622811Y-88644698D01*
X196689736Y-88544538D01*
X201170000Y-93024802D01*
X201170000Y-96024700D01*
X201227852Y-96315539D01*
X201392599Y-96562101D01*
X203766170Y-98935672D01*
X203675419Y-99071491D01*
X203569079Y-99606100D01*
X203675419Y-100140709D01*
X203978251Y-100593928D01*
X204346523Y-100840000D01*
X196941668Y-100840000D01*
X197043113Y-100330000D01*
X196933880Y-99780849D01*
X196622811Y-99315302D01*
X196240725Y-99060000D01*
X196622811Y-98804698D01*
X196933880Y-98339151D01*
X197043113Y-97790000D01*
X196933880Y-97240849D01*
X196622811Y-96775302D01*
X196218297Y-96505014D01*
X196435134Y-96402389D01*
X196811041Y-95987423D01*
X196971904Y-95599039D01*
X196849915Y-95377000D01*
X195707000Y-95377000D01*
X195707000Y-95397000D01*
X195453000Y-95397000D01*
X195453000Y-95377000D01*
X194310085Y-95377000D01*
X194188096Y-95599039D01*
X194348959Y-95987423D01*
X194724866Y-96402389D01*
X194941703Y-96505014D01*
X194537189Y-96775302D01*
X194226120Y-97240849D01*
X194116887Y-97790000D01*
X194226120Y-98339151D01*
X194537189Y-98804698D01*
X194919275Y-99060000D01*
X194537189Y-99315302D01*
X194226120Y-99780849D01*
X194116887Y-100330000D01*
X194117405Y-100332603D01*
X193800000Y-100015198D01*
X193800000Y-93059039D01*
X194188096Y-93059039D01*
X194348959Y-93447423D01*
X194724866Y-93862389D01*
X194973367Y-93980000D01*
X194724866Y-94097611D01*
X194348959Y-94512577D01*
X194188096Y-94900961D01*
X194310085Y-95123000D01*
X195453000Y-95123000D01*
X195453000Y-92837000D01*
X195707000Y-92837000D01*
X195707000Y-95123000D01*
X196849915Y-95123000D01*
X196971904Y-94900961D01*
X196811041Y-94512577D01*
X196435134Y-94097611D01*
X196186633Y-93980000D01*
X196435134Y-93862389D01*
X196811041Y-93447423D01*
X196971904Y-93059039D01*
X196849915Y-92837000D01*
X195707000Y-92837000D01*
X195453000Y-92837000D01*
X194310085Y-92837000D01*
X194188096Y-93059039D01*
X193800000Y-93059039D01*
X193800000Y-87630000D01*
X193742148Y-87339161D01*
X193742148Y-87339160D01*
X193577401Y-87092599D01*
X191037401Y-84552599D01*
X190790839Y-84387852D01*
X190500000Y-84330000D01*
X189172995Y-84330000D01*
X189002811Y-84075302D01*
X188537264Y-83764233D01*
X187988113Y-83655000D01*
X187931887Y-83655000D01*
X187382736Y-83764233D01*
X186917189Y-84075302D01*
X186606120Y-84540849D01*
X186496887Y-85090000D01*
X186606120Y-85639151D01*
X186917189Y-86104698D01*
X187299275Y-86360000D01*
X186917189Y-86615302D01*
X186850264Y-86715462D01*
X186180000Y-86045198D01*
X186180000Y-81594802D01*
X187004802Y-80770000D01*
X196535198Y-80770000D01*
X202440000Y-86674802D01*
X202440000Y-90690700D01*
X202497852Y-90981539D01*
X202662599Y-91228101D01*
X203766170Y-92331672D01*
X203675419Y-92467491D01*
X203569079Y-93002100D01*
X203675419Y-93536709D01*
X203978251Y-93989928D01*
X204400550Y-94272100D01*
X203978251Y-94554272D01*
X203675419Y-95007491D01*
X203569079Y-95542100D01*
X203675419Y-96076709D01*
X203978251Y-96529928D01*
X204431470Y-96832760D01*
X204966079Y-96939100D01*
X206056721Y-96939100D01*
X206591330Y-96832760D01*
X207044549Y-96529928D01*
X207347381Y-96076709D01*
X207453721Y-95542100D01*
X207347381Y-95007491D01*
X207044549Y-94554272D01*
X206622250Y-94272100D01*
X207044549Y-93989928D01*
X207347381Y-93536709D01*
X207453721Y-93002100D01*
X207347381Y-92467491D01*
X207044549Y-92014272D01*
X206622250Y-91732100D01*
X207044549Y-91449928D01*
X207347381Y-90996709D01*
X207453721Y-90462100D01*
X207347381Y-89927491D01*
X207044549Y-89474272D01*
X206622250Y-89192100D01*
X207044549Y-88909928D01*
X207347381Y-88456709D01*
X207453721Y-87922100D01*
X207347381Y-87387491D01*
X207044549Y-86934272D01*
X206622250Y-86652100D01*
X207044549Y-86369928D01*
X207347381Y-85916709D01*
X207453721Y-85382100D01*
X207347381Y-84847491D01*
X207044549Y-84394272D01*
X206622250Y-84112100D01*
X207044549Y-83829928D01*
X207347381Y-83376709D01*
X207453721Y-82842100D01*
X207347381Y-82307491D01*
X207044549Y-81854272D01*
X206608287Y-81562770D01*
X206671341Y-81544159D01*
X207097030Y-81200126D01*
X207358660Y-80719377D01*
X207373620Y-80645170D01*
X207251120Y-80429100D01*
X205638400Y-80429100D01*
X205638400Y-80449100D01*
X205384400Y-80449100D01*
X205384400Y-80429100D01*
X203771680Y-80429100D01*
X203649180Y-80645170D01*
X203664140Y-80719377D01*
X203925770Y-81200126D01*
X204351459Y-81544159D01*
X204414513Y-81562770D01*
X203978251Y-81854272D01*
X203675419Y-82307491D01*
X203569079Y-82842100D01*
X203675419Y-83376709D01*
X203978251Y-83829928D01*
X204400550Y-84112100D01*
X203978251Y-84394272D01*
X203675419Y-84847491D01*
X203569079Y-85382100D01*
X203636661Y-85721859D01*
X197387401Y-79472599D01*
X197140839Y-79307852D01*
X196850000Y-79250000D01*
X186690000Y-79250000D01*
X186399160Y-79307852D01*
X186152599Y-79472599D01*
X184882599Y-80742599D01*
X184717852Y-80989161D01*
X184660000Y-81280000D01*
X184660000Y-86360000D01*
X184717852Y-86650839D01*
X184882599Y-86897401D01*
X186152599Y-88167401D01*
X186399160Y-88332148D01*
X186690000Y-88390000D01*
X186747005Y-88390000D01*
X186917189Y-88644698D01*
X187299275Y-88900000D01*
X186917189Y-89155302D01*
X186606120Y-89620849D01*
X186496887Y-90170000D01*
X186606120Y-90719151D01*
X186917189Y-91184698D01*
X187321703Y-91454986D01*
X187104866Y-91557611D01*
X186728959Y-91972577D01*
X186568096Y-92360961D01*
X186690085Y-92583000D01*
X187833000Y-92583000D01*
X187833000Y-92563000D01*
X188087000Y-92563000D01*
X188087000Y-92583000D01*
X189229915Y-92583000D01*
X189351904Y-92360961D01*
X189191041Y-91972577D01*
X188815134Y-91557611D01*
X188598297Y-91454986D01*
X189002811Y-91184698D01*
X189313880Y-90719151D01*
X189423113Y-90170000D01*
X189313880Y-89620849D01*
X189002811Y-89155302D01*
X188620725Y-88900000D01*
X189002811Y-88644698D01*
X189313880Y-88179151D01*
X189423113Y-87630000D01*
X189313880Y-87080849D01*
X189002811Y-86615302D01*
X188620725Y-86360000D01*
X189002811Y-86104698D01*
X189172995Y-85850000D01*
X190185198Y-85850000D01*
X192280000Y-87944802D01*
X192280000Y-92544367D01*
X191956799Y-92410162D01*
X191584833Y-92409838D01*
X191241057Y-92551883D01*
X190977808Y-92814673D01*
X190931451Y-92926313D01*
X190766764Y-93091000D01*
X189338666Y-93091000D01*
X189351904Y-93059039D01*
X189229915Y-92837000D01*
X188087000Y-92837000D01*
X188087000Y-92857000D01*
X187833000Y-92857000D01*
X187833000Y-92837000D01*
X186690085Y-92837000D01*
X186568096Y-93059039D01*
X186581334Y-93091000D01*
X185420000Y-93091000D01*
X185079794Y-93158671D01*
X184903062Y-93276760D01*
X184791382Y-93351382D01*
X183781764Y-94361000D01*
X175662512Y-94361000D01*
X175484029Y-94093880D01*
X175313595Y-93980000D01*
X175484029Y-93866120D01*
X175662512Y-93599000D01*
X178772811Y-93599000D01*
X178883201Y-93644838D01*
X179255167Y-93645162D01*
X179598943Y-93503117D01*
X179862192Y-93240327D01*
X180004838Y-92896799D01*
X180005162Y-92524833D01*
X179863117Y-92181057D01*
X179600327Y-91917808D01*
X179256799Y-91775162D01*
X178884833Y-91774838D01*
X178773112Y-91821000D01*
X175662512Y-91821000D01*
X175484029Y-91553880D01*
X174953596Y-91199457D01*
X174327909Y-91075000D01*
X173652091Y-91075000D01*
X173026404Y-91199457D01*
X172495971Y-91553880D01*
X172141548Y-92084313D01*
X172017091Y-92710000D01*
X172141548Y-93335687D01*
X172495971Y-93866120D01*
X172666405Y-93980000D01*
X172495971Y-94093880D01*
X172141548Y-94624313D01*
X172017091Y-95250000D01*
X172141548Y-95875687D01*
X172495971Y-96406120D01*
X172666405Y-96520000D01*
X172495971Y-96633880D01*
X172141548Y-97164313D01*
X172017091Y-97790000D01*
X172141548Y-98415687D01*
X172495971Y-98946120D01*
X172666405Y-99060000D01*
X172495971Y-99173880D01*
X172141548Y-99704313D01*
X172017091Y-100330000D01*
X172141548Y-100955687D01*
X172495971Y-101486120D01*
X173026404Y-101840543D01*
X173652091Y-101965000D01*
X174327909Y-101965000D01*
X174953596Y-101840543D01*
X175484029Y-101486120D01*
X175662512Y-101219000D01*
X184625929Y-101219000D01*
X184598671Y-101259794D01*
X184531000Y-101600000D01*
X184531000Y-102572811D01*
X184485162Y-102683201D01*
X184484838Y-103055167D01*
X184626883Y-103398943D01*
X184889673Y-103662192D01*
X185233201Y-103804838D01*
X185605167Y-103805162D01*
X185948943Y-103663117D01*
X186212192Y-103400327D01*
X186354838Y-103056799D01*
X186355162Y-102684833D01*
X186309000Y-102573112D01*
X186309000Y-102489000D01*
X186572673Y-102489000D01*
X186496887Y-102870000D01*
X186606120Y-103419151D01*
X186917189Y-103884698D01*
X187382736Y-104195767D01*
X187931887Y-104305000D01*
X187988113Y-104305000D01*
X188537264Y-104195767D01*
X189002811Y-103884698D01*
X189313880Y-103419151D01*
X189423113Y-102870000D01*
X189347327Y-102489000D01*
X191472811Y-102489000D01*
X191583201Y-102534838D01*
X191955167Y-102535162D01*
X192298943Y-102393117D01*
X192562192Y-102130327D01*
X192704838Y-101786799D01*
X192705162Y-101414833D01*
X192563117Y-101071057D01*
X192300327Y-100807808D01*
X191956799Y-100665162D01*
X191584833Y-100664838D01*
X191473112Y-100711000D01*
X189347327Y-100711000D01*
X189423113Y-100330000D01*
X189313880Y-99780849D01*
X189002811Y-99315302D01*
X188620725Y-99060000D01*
X189002811Y-98804698D01*
X189313880Y-98339151D01*
X189423113Y-97790000D01*
X189313880Y-97240849D01*
X189002811Y-96775302D01*
X188598297Y-96505014D01*
X188815134Y-96402389D01*
X189191041Y-95987423D01*
X189351904Y-95599039D01*
X189229915Y-95377000D01*
X188087000Y-95377000D01*
X188087000Y-95397000D01*
X187833000Y-95397000D01*
X187833000Y-95377000D01*
X186690085Y-95377000D01*
X186568096Y-95599039D01*
X186728959Y-95987423D01*
X187104866Y-96402389D01*
X187321703Y-96505014D01*
X186917189Y-96775302D01*
X186606120Y-97240849D01*
X186496887Y-97790000D01*
X186531044Y-97961720D01*
X185051764Y-99441000D01*
X175662512Y-99441000D01*
X175484029Y-99173880D01*
X175313595Y-99060000D01*
X175484029Y-98946120D01*
X175662512Y-98679000D01*
X176232811Y-98679000D01*
X176343201Y-98724838D01*
X176715167Y-98725162D01*
X177058943Y-98583117D01*
X177322192Y-98320327D01*
X177464838Y-97976799D01*
X177465162Y-97604833D01*
X177323117Y-97261057D01*
X177060327Y-96997808D01*
X176716799Y-96855162D01*
X176344833Y-96854838D01*
X176233112Y-96901000D01*
X175662512Y-96901000D01*
X175484029Y-96633880D01*
X175313595Y-96520000D01*
X175484029Y-96406120D01*
X175662512Y-96139000D01*
X184150000Y-96139000D01*
X184490206Y-96071329D01*
X184778618Y-95878618D01*
X185788236Y-94869000D01*
X186581334Y-94869000D01*
X186568096Y-94900961D01*
X186690085Y-95123000D01*
X187833000Y-95123000D01*
X187833000Y-95103000D01*
X188087000Y-95103000D01*
X188087000Y-95123000D01*
X189229915Y-95123000D01*
X189351904Y-94900961D01*
X189338666Y-94869000D01*
X191135000Y-94869000D01*
X191475206Y-94801329D01*
X191763618Y-94608618D01*
X192188474Y-94183762D01*
X192280000Y-94145944D01*
X192280000Y-100330000D01*
X192337852Y-100620839D01*
X192502599Y-100867401D01*
X193772599Y-102137401D01*
X194019160Y-102302148D01*
X194132560Y-102324705D01*
X194132560Y-103670000D01*
X194176838Y-103905317D01*
X194315910Y-104121441D01*
X194528110Y-104266431D01*
X194780000Y-104317440D01*
X196380000Y-104317440D01*
X196615317Y-104273162D01*
X196831441Y-104134090D01*
X196976431Y-103921890D01*
X197027440Y-103670000D01*
X197027440Y-103630000D01*
X200345198Y-103630000D01*
X201938699Y-105223501D01*
X202185260Y-105388248D01*
X202476100Y-105446100D01*
X203826021Y-105446100D01*
X203978251Y-105673928D01*
X204400550Y-105956100D01*
X203978251Y-106238272D01*
X203675419Y-106691491D01*
X203569079Y-107226100D01*
X203675419Y-107760709D01*
X203978251Y-108213928D01*
X204400550Y-108496100D01*
X203978251Y-108778272D01*
X203675419Y-109231491D01*
X203569079Y-109766100D01*
X203675419Y-110300709D01*
X203978251Y-110753928D01*
X204400550Y-111036100D01*
X203978251Y-111318272D01*
X203675419Y-111771491D01*
X203569079Y-112306100D01*
X203675419Y-112840709D01*
X203978251Y-113293928D01*
X204400550Y-113576100D01*
X203978251Y-113858272D01*
X203675419Y-114311491D01*
X203569079Y-114846100D01*
X203675419Y-115380709D01*
X203978251Y-115833928D01*
X204400550Y-116116100D01*
X203978251Y-116398272D01*
X203675419Y-116851491D01*
X203569079Y-117386100D01*
X203675419Y-117920709D01*
X203978251Y-118373928D01*
X204421353Y-118670000D01*
X201370000Y-118670000D01*
X201370000Y-111760000D01*
X201315954Y-111488295D01*
X201162046Y-111257954D01*
X197352046Y-107447954D01*
X197121705Y-107294046D01*
X196850000Y-107240000D01*
X173014092Y-107240000D01*
X166872046Y-101097954D01*
X166641705Y-100944046D01*
X166370000Y-100890000D01*
X158341447Y-100890000D01*
X158784549Y-100593928D01*
X158850584Y-100495100D01*
X162013900Y-100495100D01*
X162354106Y-100427429D01*
X162642518Y-100234718D01*
X166998618Y-95878618D01*
X167072424Y-95768159D01*
X167191329Y-95590206D01*
X167259000Y-95250000D01*
X167259000Y-86868000D01*
X170818560Y-86868000D01*
X170818560Y-87279000D01*
X170862838Y-87514317D01*
X171001910Y-87730441D01*
X171214110Y-87875431D01*
X171466000Y-87926440D01*
X171577000Y-87926440D01*
X171577000Y-88646000D01*
X171644671Y-88986206D01*
X171837382Y-89274618D01*
X172125794Y-89467329D01*
X172466000Y-89535000D01*
X176784000Y-89535000D01*
X177124206Y-89467329D01*
X177412618Y-89274618D01*
X183298474Y-83388762D01*
X183408943Y-83343117D01*
X183672192Y-83080327D01*
X183814838Y-82736799D01*
X183815162Y-82364833D01*
X183673117Y-82021057D01*
X183410327Y-81757808D01*
X183066799Y-81615162D01*
X182694833Y-81614838D01*
X182351057Y-81756883D01*
X182087808Y-82019673D01*
X182041451Y-82131313D01*
X176415764Y-87757000D01*
X175658902Y-87757000D01*
X176072317Y-87524922D01*
X176467942Y-87022020D01*
X176641000Y-86406000D01*
X176641000Y-86106000D01*
X175133000Y-86106000D01*
X175133000Y-86126000D01*
X174879000Y-86126000D01*
X174879000Y-86106000D01*
X174859000Y-86106000D01*
X174859000Y-85852000D01*
X174879000Y-85852000D01*
X174879000Y-84208223D01*
X175133000Y-84208223D01*
X175133000Y-85852000D01*
X176641000Y-85852000D01*
X176641000Y-85552000D01*
X176467942Y-84935980D01*
X176072317Y-84433078D01*
X175514355Y-84119856D01*
X175386434Y-84088876D01*
X175133000Y-84208223D01*
X174879000Y-84208223D01*
X174625566Y-84088876D01*
X174497645Y-84119856D01*
X174029789Y-84382495D01*
X173930090Y-84227559D01*
X173717890Y-84082569D01*
X173466000Y-84031560D01*
X171466000Y-84031560D01*
X171230683Y-84075838D01*
X171014559Y-84214910D01*
X170869569Y-84427110D01*
X170818560Y-84679000D01*
X170818560Y-85090000D01*
X166751000Y-85090000D01*
X166410794Y-85157671D01*
X166122382Y-85350382D01*
X165741382Y-85731382D01*
X165548671Y-86019794D01*
X165481000Y-86360000D01*
X165481000Y-94881764D01*
X161645664Y-98717100D01*
X158850584Y-98717100D01*
X158784549Y-98618272D01*
X158348287Y-98326770D01*
X158411341Y-98308159D01*
X158837030Y-97964126D01*
X159098660Y-97483377D01*
X159113620Y-97409170D01*
X158991120Y-97193100D01*
X157378400Y-97193100D01*
X157378400Y-97213100D01*
X157124400Y-97213100D01*
X157124400Y-97193100D01*
X157104400Y-97193100D01*
X157104400Y-96939100D01*
X157124400Y-96939100D01*
X157124400Y-94653100D01*
X157378400Y-94653100D01*
X157378400Y-96939100D01*
X158991120Y-96939100D01*
X159113620Y-96723030D01*
X159098660Y-96648823D01*
X158837030Y-96168074D01*
X158411341Y-95824041D01*
X158316677Y-95796100D01*
X158411341Y-95768159D01*
X158837030Y-95424126D01*
X159098660Y-94943377D01*
X159113620Y-94869170D01*
X158991120Y-94653100D01*
X157378400Y-94653100D01*
X157124400Y-94653100D01*
X157104400Y-94653100D01*
X157104400Y-94399100D01*
X157124400Y-94399100D01*
X157124400Y-94379100D01*
X157378400Y-94379100D01*
X157378400Y-94399100D01*
X158991120Y-94399100D01*
X159113620Y-94183030D01*
X159098660Y-94108823D01*
X158837030Y-93628074D01*
X158411341Y-93284041D01*
X158348287Y-93265430D01*
X158784549Y-92973928D01*
X159087381Y-92520709D01*
X159193721Y-91986100D01*
X159087381Y-91451491D01*
X158784549Y-90998272D01*
X158362250Y-90716100D01*
X158784549Y-90433928D01*
X159087381Y-89980709D01*
X159193721Y-89446100D01*
X159087381Y-88911491D01*
X158784549Y-88458272D01*
X158362250Y-88176100D01*
X158784549Y-87893928D01*
X159087381Y-87440709D01*
X159193721Y-86906100D01*
X159087381Y-86371491D01*
X158784549Y-85918272D01*
X158331330Y-85615440D01*
X157796721Y-85509100D01*
X156706079Y-85509100D01*
X156171470Y-85615440D01*
X155718251Y-85918272D01*
X155650000Y-86020417D01*
X155650000Y-83260000D01*
X177800000Y-83260000D01*
X178071705Y-83205954D01*
X178302046Y-83052046D01*
X184444092Y-76910000D01*
X203887560Y-76910000D01*
X203675419Y-77227491D01*
X203675419Y-77227491D01*
G37*
X203675419Y-77227491D02*
X203569079Y-77762100D01*
X203675419Y-78296709D01*
X203978251Y-78749928D01*
X204414513Y-79041430D01*
X204351459Y-79060041D01*
X203925770Y-79404074D01*
X203664140Y-79884823D01*
X203649180Y-79959030D01*
X203771680Y-80175100D01*
X205384400Y-80175100D01*
X205384400Y-80155100D01*
X205638400Y-80155100D01*
X205638400Y-80175100D01*
X207251120Y-80175100D01*
X207373620Y-79959030D01*
X207358660Y-79884823D01*
X207097030Y-79404074D01*
X206671341Y-79060041D01*
X206608287Y-79041430D01*
X207044549Y-78749928D01*
X207347381Y-78296709D01*
X207453721Y-77762100D01*
X207347381Y-77227491D01*
X207135240Y-76910000D01*
X207570000Y-76910000D01*
X207570000Y-117815908D01*
X207110133Y-118275775D01*
X207347381Y-117920709D01*
X207453721Y-117386100D01*
X207347381Y-116851491D01*
X207044549Y-116398272D01*
X206622250Y-116116100D01*
X207044549Y-115833928D01*
X207347381Y-115380709D01*
X207453721Y-114846100D01*
X207347381Y-114311491D01*
X207044549Y-113858272D01*
X206622250Y-113576100D01*
X207044549Y-113293928D01*
X207347381Y-112840709D01*
X207453721Y-112306100D01*
X207347381Y-111771491D01*
X207044549Y-111318272D01*
X206622250Y-111036100D01*
X207044549Y-110753928D01*
X207347381Y-110300709D01*
X207453721Y-109766100D01*
X207347381Y-109231491D01*
X207044549Y-108778272D01*
X206622250Y-108496100D01*
X207044549Y-108213928D01*
X207347381Y-107760709D01*
X207453721Y-107226100D01*
X207347381Y-106691491D01*
X207044549Y-106238272D01*
X206622250Y-105956100D01*
X207044549Y-105673928D01*
X207347381Y-105220709D01*
X207453721Y-104686100D01*
X207347381Y-104151491D01*
X207044549Y-103698272D01*
X206622250Y-103416100D01*
X207044549Y-103133928D01*
X207347381Y-102680709D01*
X207453721Y-102146100D01*
X207347381Y-101611491D01*
X207044549Y-101158272D01*
X206622250Y-100876100D01*
X207044549Y-100593928D01*
X207347381Y-100140709D01*
X207453721Y-99606100D01*
X207347381Y-99071491D01*
X207044549Y-98618272D01*
X206591330Y-98315440D01*
X206056721Y-98209100D01*
X205189202Y-98209100D01*
X202690000Y-95709898D01*
X202690000Y-92710000D01*
X202632148Y-92419161D01*
X202467401Y-92172599D01*
X197387401Y-87092599D01*
X197140839Y-86927852D01*
X196850000Y-86870000D01*
X196792995Y-86870000D01*
X196622811Y-86615302D01*
X196240725Y-86360000D01*
X196622811Y-86104698D01*
X196933880Y-85639151D01*
X197043113Y-85090000D01*
X196933880Y-84540849D01*
X196622811Y-84075302D01*
X196157264Y-83764233D01*
X195608113Y-83655000D01*
X195551887Y-83655000D01*
X195002736Y-83764233D01*
X194537189Y-84075302D01*
X194226120Y-84540849D01*
X194116887Y-85090000D01*
X194226120Y-85639151D01*
X194537189Y-86104698D01*
X194919275Y-86360000D01*
X194537189Y-86615302D01*
X194226120Y-87080849D01*
X194116887Y-87630000D01*
X194226120Y-88179151D01*
X194537189Y-88644698D01*
X194919275Y-88900000D01*
X194537189Y-89155302D01*
X194226120Y-89620849D01*
X194116887Y-90170000D01*
X194226120Y-90719151D01*
X194537189Y-91184698D01*
X194941703Y-91454986D01*
X194724866Y-91557611D01*
X194348959Y-91972577D01*
X194188096Y-92360961D01*
X194310085Y-92583000D01*
X195453000Y-92583000D01*
X195453000Y-92563000D01*
X195707000Y-92563000D01*
X195707000Y-92583000D01*
X196849915Y-92583000D01*
X196971904Y-92360961D01*
X196811041Y-91972577D01*
X196435134Y-91557611D01*
X196218297Y-91454986D01*
X196622811Y-91184698D01*
X196933880Y-90719151D01*
X197043113Y-90170000D01*
X196933880Y-89620849D01*
X196622811Y-89155302D01*
X196240725Y-88900000D01*
X196622811Y-88644698D01*
X196689736Y-88544538D01*
X201170000Y-93024802D01*
X201170000Y-96024700D01*
X201227852Y-96315539D01*
X201392599Y-96562101D01*
X203766170Y-98935672D01*
X203675419Y-99071491D01*
X203569079Y-99606100D01*
X203675419Y-100140709D01*
X203978251Y-100593928D01*
X204346523Y-100840000D01*
X196941668Y-100840000D01*
X197043113Y-100330000D01*
X196933880Y-99780849D01*
X196622811Y-99315302D01*
X196240725Y-99060000D01*
X196622811Y-98804698D01*
X196933880Y-98339151D01*
X197043113Y-97790000D01*
X196933880Y-97240849D01*
X196622811Y-96775302D01*
X196218297Y-96505014D01*
X196435134Y-96402389D01*
X196811041Y-95987423D01*
X196971904Y-95599039D01*
X196849915Y-95377000D01*
X195707000Y-95377000D01*
X195707000Y-95397000D01*
X195453000Y-95397000D01*
X195453000Y-95377000D01*
X194310085Y-95377000D01*
X194188096Y-95599039D01*
X194348959Y-95987423D01*
X194724866Y-96402389D01*
X194941703Y-96505014D01*
X194537189Y-96775302D01*
X194226120Y-97240849D01*
X194116887Y-97790000D01*
X194226120Y-98339151D01*
X194537189Y-98804698D01*
X194919275Y-99060000D01*
X194537189Y-99315302D01*
X194226120Y-99780849D01*
X194116887Y-100330000D01*
X194117405Y-100332603D01*
X193800000Y-100015198D01*
X193800000Y-93059039D01*
X194188096Y-93059039D01*
X194348959Y-93447423D01*
X194724866Y-93862389D01*
X194973367Y-93980000D01*
X194724866Y-94097611D01*
X194348959Y-94512577D01*
X194188096Y-94900961D01*
X194310085Y-95123000D01*
X195453000Y-95123000D01*
X195453000Y-92837000D01*
X195707000Y-92837000D01*
X195707000Y-95123000D01*
X196849915Y-95123000D01*
X196971904Y-94900961D01*
X196811041Y-94512577D01*
X196435134Y-94097611D01*
X196186633Y-93980000D01*
X196435134Y-93862389D01*
X196811041Y-93447423D01*
X196971904Y-93059039D01*
X196849915Y-92837000D01*
X195707000Y-92837000D01*
X195453000Y-92837000D01*
X194310085Y-92837000D01*
X194188096Y-93059039D01*
X193800000Y-93059039D01*
X193800000Y-87630000D01*
X193742148Y-87339161D01*
X193742148Y-87339160D01*
X193577401Y-87092599D01*
X191037401Y-84552599D01*
X190790839Y-84387852D01*
X190500000Y-84330000D01*
X189172995Y-84330000D01*
X189002811Y-84075302D01*
X188537264Y-83764233D01*
X187988113Y-83655000D01*
X187931887Y-83655000D01*
X187382736Y-83764233D01*
X186917189Y-84075302D01*
X186606120Y-84540849D01*
X186496887Y-85090000D01*
X186606120Y-85639151D01*
X186917189Y-86104698D01*
X187299275Y-86360000D01*
X186917189Y-86615302D01*
X186850264Y-86715462D01*
X186180000Y-86045198D01*
X186180000Y-81594802D01*
X187004802Y-80770000D01*
X196535198Y-80770000D01*
X202440000Y-86674802D01*
X202440000Y-90690700D01*
X202497852Y-90981539D01*
X202662599Y-91228101D01*
X203766170Y-92331672D01*
X203675419Y-92467491D01*
X203569079Y-93002100D01*
X203675419Y-93536709D01*
X203978251Y-93989928D01*
X204400550Y-94272100D01*
X203978251Y-94554272D01*
X203675419Y-95007491D01*
X203569079Y-95542100D01*
X203675419Y-96076709D01*
X203978251Y-96529928D01*
X204431470Y-96832760D01*
X204966079Y-96939100D01*
X206056721Y-96939100D01*
X206591330Y-96832760D01*
X207044549Y-96529928D01*
X207347381Y-96076709D01*
X207453721Y-95542100D01*
X207347381Y-95007491D01*
X207044549Y-94554272D01*
X206622250Y-94272100D01*
X207044549Y-93989928D01*
X207347381Y-93536709D01*
X207453721Y-93002100D01*
X207347381Y-92467491D01*
X207044549Y-92014272D01*
X206622250Y-91732100D01*
X207044549Y-91449928D01*
X207347381Y-90996709D01*
X207453721Y-90462100D01*
X207347381Y-89927491D01*
X207044549Y-89474272D01*
X206622250Y-89192100D01*
X207044549Y-88909928D01*
X207347381Y-88456709D01*
X207453721Y-87922100D01*
X207347381Y-87387491D01*
X207044549Y-86934272D01*
X206622250Y-86652100D01*
X207044549Y-86369928D01*
X207347381Y-85916709D01*
X207453721Y-85382100D01*
X207347381Y-84847491D01*
X207044549Y-84394272D01*
X206622250Y-84112100D01*
X207044549Y-83829928D01*
X207347381Y-83376709D01*
X207453721Y-82842100D01*
X207347381Y-82307491D01*
X207044549Y-81854272D01*
X206608287Y-81562770D01*
X206671341Y-81544159D01*
X207097030Y-81200126D01*
X207358660Y-80719377D01*
X207373620Y-80645170D01*
X207251120Y-80429100D01*
X205638400Y-80429100D01*
X205638400Y-80449100D01*
X205384400Y-80449100D01*
X205384400Y-80429100D01*
X203771680Y-80429100D01*
X203649180Y-80645170D01*
X203664140Y-80719377D01*
X203925770Y-81200126D01*
X204351459Y-81544159D01*
X204414513Y-81562770D01*
X203978251Y-81854272D01*
X203675419Y-82307491D01*
X203569079Y-82842100D01*
X203675419Y-83376709D01*
X203978251Y-83829928D01*
X204400550Y-84112100D01*
X203978251Y-84394272D01*
X203675419Y-84847491D01*
X203569079Y-85382100D01*
X203636661Y-85721859D01*
X197387401Y-79472599D01*
X197140839Y-79307852D01*
X196850000Y-79250000D01*
X186690000Y-79250000D01*
X186399160Y-79307852D01*
X186152599Y-79472599D01*
X184882599Y-80742599D01*
X184717852Y-80989161D01*
X184660000Y-81280000D01*
X184660000Y-86360000D01*
X184717852Y-86650839D01*
X184882599Y-86897401D01*
X186152599Y-88167401D01*
X186399160Y-88332148D01*
X186690000Y-88390000D01*
X186747005Y-88390000D01*
X186917189Y-88644698D01*
X187299275Y-88900000D01*
X186917189Y-89155302D01*
X186606120Y-89620849D01*
X186496887Y-90170000D01*
X186606120Y-90719151D01*
X186917189Y-91184698D01*
X187321703Y-91454986D01*
X187104866Y-91557611D01*
X186728959Y-91972577D01*
X186568096Y-92360961D01*
X186690085Y-92583000D01*
X187833000Y-92583000D01*
X187833000Y-92563000D01*
X188087000Y-92563000D01*
X188087000Y-92583000D01*
X189229915Y-92583000D01*
X189351904Y-92360961D01*
X189191041Y-91972577D01*
X188815134Y-91557611D01*
X188598297Y-91454986D01*
X189002811Y-91184698D01*
X189313880Y-90719151D01*
X189423113Y-90170000D01*
X189313880Y-89620849D01*
X189002811Y-89155302D01*
X188620725Y-88900000D01*
X189002811Y-88644698D01*
X189313880Y-88179151D01*
X189423113Y-87630000D01*
X189313880Y-87080849D01*
X189002811Y-86615302D01*
X188620725Y-86360000D01*
X189002811Y-86104698D01*
X189172995Y-85850000D01*
X190185198Y-85850000D01*
X192280000Y-87944802D01*
X192280000Y-92544367D01*
X191956799Y-92410162D01*
X191584833Y-92409838D01*
X191241057Y-92551883D01*
X190977808Y-92814673D01*
X190931451Y-92926313D01*
X190766764Y-93091000D01*
X189338666Y-93091000D01*
X189351904Y-93059039D01*
X189229915Y-92837000D01*
X188087000Y-92837000D01*
X188087000Y-92857000D01*
X187833000Y-92857000D01*
X187833000Y-92837000D01*
X186690085Y-92837000D01*
X186568096Y-93059039D01*
X186581334Y-93091000D01*
X185420000Y-93091000D01*
X185079794Y-93158671D01*
X184903062Y-93276760D01*
X184791382Y-93351382D01*
X183781764Y-94361000D01*
X175662512Y-94361000D01*
X175484029Y-94093880D01*
X175313595Y-93980000D01*
X175484029Y-93866120D01*
X175662512Y-93599000D01*
X178772811Y-93599000D01*
X178883201Y-93644838D01*
X179255167Y-93645162D01*
X179598943Y-93503117D01*
X179862192Y-93240327D01*
X180004838Y-92896799D01*
X180005162Y-92524833D01*
X179863117Y-92181057D01*
X179600327Y-91917808D01*
X179256799Y-91775162D01*
X178884833Y-91774838D01*
X178773112Y-91821000D01*
X175662512Y-91821000D01*
X175484029Y-91553880D01*
X174953596Y-91199457D01*
X174327909Y-91075000D01*
X173652091Y-91075000D01*
X173026404Y-91199457D01*
X172495971Y-91553880D01*
X172141548Y-92084313D01*
X172017091Y-92710000D01*
X172141548Y-93335687D01*
X172495971Y-93866120D01*
X172666405Y-93980000D01*
X172495971Y-94093880D01*
X172141548Y-94624313D01*
X172017091Y-95250000D01*
X172141548Y-95875687D01*
X172495971Y-96406120D01*
X172666405Y-96520000D01*
X172495971Y-96633880D01*
X172141548Y-97164313D01*
X172017091Y-97790000D01*
X172141548Y-98415687D01*
X172495971Y-98946120D01*
X172666405Y-99060000D01*
X172495971Y-99173880D01*
X172141548Y-99704313D01*
X172017091Y-100330000D01*
X172141548Y-100955687D01*
X172495971Y-101486120D01*
X173026404Y-101840543D01*
X173652091Y-101965000D01*
X174327909Y-101965000D01*
X174953596Y-101840543D01*
X175484029Y-101486120D01*
X175662512Y-101219000D01*
X184625929Y-101219000D01*
X184598671Y-101259794D01*
X184531000Y-101600000D01*
X184531000Y-102572811D01*
X184485162Y-102683201D01*
X184484838Y-103055167D01*
X184626883Y-103398943D01*
X184889673Y-103662192D01*
X185233201Y-103804838D01*
X185605167Y-103805162D01*
X185948943Y-103663117D01*
X186212192Y-103400327D01*
X186354838Y-103056799D01*
X186355162Y-102684833D01*
X186309000Y-102573112D01*
X186309000Y-102489000D01*
X186572673Y-102489000D01*
X186496887Y-102870000D01*
X186606120Y-103419151D01*
X186917189Y-103884698D01*
X187382736Y-104195767D01*
X187931887Y-104305000D01*
X187988113Y-104305000D01*
X188537264Y-104195767D01*
X189002811Y-103884698D01*
X189313880Y-103419151D01*
X189423113Y-102870000D01*
X189347327Y-102489000D01*
X191472811Y-102489000D01*
X191583201Y-102534838D01*
X191955167Y-102535162D01*
X192298943Y-102393117D01*
X192562192Y-102130327D01*
X192704838Y-101786799D01*
X192705162Y-101414833D01*
X192563117Y-101071057D01*
X192300327Y-100807808D01*
X191956799Y-100665162D01*
X191584833Y-100664838D01*
X191473112Y-100711000D01*
X189347327Y-100711000D01*
X189423113Y-100330000D01*
X189313880Y-99780849D01*
X189002811Y-99315302D01*
X188620725Y-99060000D01*
X189002811Y-98804698D01*
X189313880Y-98339151D01*
X189423113Y-97790000D01*
X189313880Y-97240849D01*
X189002811Y-96775302D01*
X188598297Y-96505014D01*
X188815134Y-96402389D01*
X189191041Y-95987423D01*
X189351904Y-95599039D01*
X189229915Y-95377000D01*
X188087000Y-95377000D01*
X188087000Y-95397000D01*
X187833000Y-95397000D01*
X187833000Y-95377000D01*
X186690085Y-95377000D01*
X186568096Y-95599039D01*
X186728959Y-95987423D01*
X187104866Y-96402389D01*
X187321703Y-96505014D01*
X186917189Y-96775302D01*
X186606120Y-97240849D01*
X186496887Y-97790000D01*
X186531044Y-97961720D01*
X185051764Y-99441000D01*
X175662512Y-99441000D01*
X175484029Y-99173880D01*
X175313595Y-99060000D01*
X175484029Y-98946120D01*
X175662512Y-98679000D01*
X176232811Y-98679000D01*
X176343201Y-98724838D01*
X176715167Y-98725162D01*
X177058943Y-98583117D01*
X177322192Y-98320327D01*
X177464838Y-97976799D01*
X177465162Y-97604833D01*
X177323117Y-97261057D01*
X177060327Y-96997808D01*
X176716799Y-96855162D01*
X176344833Y-96854838D01*
X176233112Y-96901000D01*
X175662512Y-96901000D01*
X175484029Y-96633880D01*
X175313595Y-96520000D01*
X175484029Y-96406120D01*
X175662512Y-96139000D01*
X184150000Y-96139000D01*
X184490206Y-96071329D01*
X184778618Y-95878618D01*
X185788236Y-94869000D01*
X186581334Y-94869000D01*
X186568096Y-94900961D01*
X186690085Y-95123000D01*
X187833000Y-95123000D01*
X187833000Y-95103000D01*
X188087000Y-95103000D01*
X188087000Y-95123000D01*
X189229915Y-95123000D01*
X189351904Y-94900961D01*
X189338666Y-94869000D01*
X191135000Y-94869000D01*
X191475206Y-94801329D01*
X191763618Y-94608618D01*
X192188474Y-94183762D01*
X192280000Y-94145944D01*
X192280000Y-100330000D01*
X192337852Y-100620839D01*
X192502599Y-100867401D01*
X193772599Y-102137401D01*
X194019160Y-102302148D01*
X194132560Y-102324705D01*
X194132560Y-103670000D01*
X194176838Y-103905317D01*
X194315910Y-104121441D01*
X194528110Y-104266431D01*
X194780000Y-104317440D01*
X196380000Y-104317440D01*
X196615317Y-104273162D01*
X196831441Y-104134090D01*
X196976431Y-103921890D01*
X197027440Y-103670000D01*
X197027440Y-103630000D01*
X200345198Y-103630000D01*
X201938699Y-105223501D01*
X202185260Y-105388248D01*
X202476100Y-105446100D01*
X203826021Y-105446100D01*
X203978251Y-105673928D01*
X204400550Y-105956100D01*
X203978251Y-106238272D01*
X203675419Y-106691491D01*
X203569079Y-107226100D01*
X203675419Y-107760709D01*
X203978251Y-108213928D01*
X204400550Y-108496100D01*
X203978251Y-108778272D01*
X203675419Y-109231491D01*
X203569079Y-109766100D01*
X203675419Y-110300709D01*
X203978251Y-110753928D01*
X204400550Y-111036100D01*
X203978251Y-111318272D01*
X203675419Y-111771491D01*
X203569079Y-112306100D01*
X203675419Y-112840709D01*
X203978251Y-113293928D01*
X204400550Y-113576100D01*
X203978251Y-113858272D01*
X203675419Y-114311491D01*
X203569079Y-114846100D01*
X203675419Y-115380709D01*
X203978251Y-115833928D01*
X204400550Y-116116100D01*
X203978251Y-116398272D01*
X203675419Y-116851491D01*
X203569079Y-117386100D01*
X203675419Y-117920709D01*
X203978251Y-118373928D01*
X204421353Y-118670000D01*
X201370000Y-118670000D01*
X201370000Y-111760000D01*
X201315954Y-111488295D01*
X201162046Y-111257954D01*
X197352046Y-107447954D01*
X197121705Y-107294046D01*
X196850000Y-107240000D01*
X173014092Y-107240000D01*
X166872046Y-101097954D01*
X166641705Y-100944046D01*
X166370000Y-100890000D01*
X158341447Y-100890000D01*
X158784549Y-100593928D01*
X158850584Y-100495100D01*
X162013900Y-100495100D01*
X162354106Y-100427429D01*
X162642518Y-100234718D01*
X166998618Y-95878618D01*
X167072424Y-95768159D01*
X167191329Y-95590206D01*
X167259000Y-95250000D01*
X167259000Y-86868000D01*
X170818560Y-86868000D01*
X170818560Y-87279000D01*
X170862838Y-87514317D01*
X171001910Y-87730441D01*
X171214110Y-87875431D01*
X171466000Y-87926440D01*
X171577000Y-87926440D01*
X171577000Y-88646000D01*
X171644671Y-88986206D01*
X171837382Y-89274618D01*
X172125794Y-89467329D01*
X172466000Y-89535000D01*
X176784000Y-89535000D01*
X177124206Y-89467329D01*
X177412618Y-89274618D01*
X183298474Y-83388762D01*
X183408943Y-83343117D01*
X183672192Y-83080327D01*
X183814838Y-82736799D01*
X183815162Y-82364833D01*
X183673117Y-82021057D01*
X183410327Y-81757808D01*
X183066799Y-81615162D01*
X182694833Y-81614838D01*
X182351057Y-81756883D01*
X182087808Y-82019673D01*
X182041451Y-82131313D01*
X176415764Y-87757000D01*
X175658902Y-87757000D01*
X176072317Y-87524922D01*
X176467942Y-87022020D01*
X176641000Y-86406000D01*
X176641000Y-86106000D01*
X175133000Y-86106000D01*
X175133000Y-86126000D01*
X174879000Y-86126000D01*
X174879000Y-86106000D01*
X174859000Y-86106000D01*
X174859000Y-85852000D01*
X174879000Y-85852000D01*
X174879000Y-84208223D01*
X175133000Y-84208223D01*
X175133000Y-85852000D01*
X176641000Y-85852000D01*
X176641000Y-85552000D01*
X176467942Y-84935980D01*
X176072317Y-84433078D01*
X175514355Y-84119856D01*
X175386434Y-84088876D01*
X175133000Y-84208223D01*
X174879000Y-84208223D01*
X174625566Y-84088876D01*
X174497645Y-84119856D01*
X174029789Y-84382495D01*
X173930090Y-84227559D01*
X173717890Y-84082569D01*
X173466000Y-84031560D01*
X171466000Y-84031560D01*
X171230683Y-84075838D01*
X171014559Y-84214910D01*
X170869569Y-84427110D01*
X170818560Y-84679000D01*
X170818560Y-85090000D01*
X166751000Y-85090000D01*
X166410794Y-85157671D01*
X166122382Y-85350382D01*
X165741382Y-85731382D01*
X165548671Y-86019794D01*
X165481000Y-86360000D01*
X165481000Y-94881764D01*
X161645664Y-98717100D01*
X158850584Y-98717100D01*
X158784549Y-98618272D01*
X158348287Y-98326770D01*
X158411341Y-98308159D01*
X158837030Y-97964126D01*
X159098660Y-97483377D01*
X159113620Y-97409170D01*
X158991120Y-97193100D01*
X157378400Y-97193100D01*
X157378400Y-97213100D01*
X157124400Y-97213100D01*
X157124400Y-97193100D01*
X157104400Y-97193100D01*
X157104400Y-96939100D01*
X157124400Y-96939100D01*
X157124400Y-94653100D01*
X157378400Y-94653100D01*
X157378400Y-96939100D01*
X158991120Y-96939100D01*
X159113620Y-96723030D01*
X159098660Y-96648823D01*
X158837030Y-96168074D01*
X158411341Y-95824041D01*
X158316677Y-95796100D01*
X158411341Y-95768159D01*
X158837030Y-95424126D01*
X159098660Y-94943377D01*
X159113620Y-94869170D01*
X158991120Y-94653100D01*
X157378400Y-94653100D01*
X157124400Y-94653100D01*
X157104400Y-94653100D01*
X157104400Y-94399100D01*
X157124400Y-94399100D01*
X157124400Y-94379100D01*
X157378400Y-94379100D01*
X157378400Y-94399100D01*
X158991120Y-94399100D01*
X159113620Y-94183030D01*
X159098660Y-94108823D01*
X158837030Y-93628074D01*
X158411341Y-93284041D01*
X158348287Y-93265430D01*
X158784549Y-92973928D01*
X159087381Y-92520709D01*
X159193721Y-91986100D01*
X159087381Y-91451491D01*
X158784549Y-90998272D01*
X158362250Y-90716100D01*
X158784549Y-90433928D01*
X159087381Y-89980709D01*
X159193721Y-89446100D01*
X159087381Y-88911491D01*
X158784549Y-88458272D01*
X158362250Y-88176100D01*
X158784549Y-87893928D01*
X159087381Y-87440709D01*
X159193721Y-86906100D01*
X159087381Y-86371491D01*
X158784549Y-85918272D01*
X158331330Y-85615440D01*
X157796721Y-85509100D01*
X156706079Y-85509100D01*
X156171470Y-85615440D01*
X155718251Y-85918272D01*
X155650000Y-86020417D01*
X155650000Y-83260000D01*
X177800000Y-83260000D01*
X178071705Y-83205954D01*
X178302046Y-83052046D01*
X184444092Y-76910000D01*
X203887560Y-76910000D01*
X203675419Y-77227491D01*
G36*
X203675419Y-102680709D02*
X203978251Y-103133928D01*
X204400550Y-103416100D01*
X203978251Y-103698272D01*
X203826021Y-103926100D01*
X202790902Y-103926100D01*
X201224802Y-102360000D01*
X203611626Y-102360000D01*
X203675419Y-102680709D01*
X203675419Y-102680709D01*
G37*
X203675419Y-102680709D02*
X203978251Y-103133928D01*
X204400550Y-103416100D01*
X203978251Y-103698272D01*
X203826021Y-103926100D01*
X202790902Y-103926100D01*
X201224802Y-102360000D01*
X203611626Y-102360000D01*
X203675419Y-102680709D01*
M02*
