M48
;DRILL file {KiCad 4.0.6} date Wed Jun 28 23:47:11 2017
;FORMAT={-:-/ absolute / metric / decimal}
FMAT,2
METRIC,TZ
T1C0.400
T2C0.800
T3C0.813
T4C1.200
%
G90
G05
M71
T1
X160.02Y-93.98
X161.29Y-97.79
X162.56Y-86.36
X162.56Y-90.17
X165.1Y-92.71
X174.625Y-90.17
X176.53Y-97.79
X177.165Y-85.725
X179.07Y-88.9
X179.07Y-92.71
X179.705Y-83.82
X181.61Y-86.36
X182.245Y-81.28
X182.88Y-82.55
X182.88Y-93.98
X184.15Y-97.79
X185.42Y-102.87
X187.325Y-81.28
X189.865Y-90.17
X189.865Y-91.44
X189.865Y-92.71
X189.865Y-95.25
X189.865Y-96.52
X189.865Y-97.79
X191.135Y-89.535
X191.135Y-90.805
X191.135Y-92.075
X191.135Y-95.25
X191.135Y-96.52
X191.135Y-97.79
X191.77Y-93.345
X191.77Y-101.6
X194.31Y-93.98
X196.215Y-81.915
X196.85Y-91.44
X196.85Y-93.98
X197.485Y-86.36
X198.12Y-91.44
X198.12Y-92.71
X198.12Y-93.98
X198.12Y-95.25
X199.39Y-107.95
X200.025Y-97.79
X200.025Y-97.79
X201.93Y-86.995
X201.93Y-90.17
X202.565Y-81.915
X202.565Y-99.695
X202.565Y-102.87
X202.565Y-106.045
X202.565Y-109.22
T2
X187.96Y-85.09
X187.96Y-87.63
X187.96Y-90.17
X187.96Y-92.71
X187.96Y-95.25
X187.96Y-97.79
X187.96Y-100.33
X187.96Y-102.87
X195.58Y-85.09
X195.58Y-87.63
X195.58Y-90.17
X195.58Y-92.71
X195.58Y-95.25
X195.58Y-97.79
X195.58Y-100.33
X195.58Y-102.87
T3
X157.251Y-86.906
X157.251Y-89.446
X157.251Y-91.986
X157.251Y-94.526
X157.251Y-97.066
X157.251Y-99.606
X205.511Y-77.762
X205.511Y-80.302
X205.511Y-82.842
X205.511Y-85.382
X205.511Y-87.922
X205.511Y-90.462
X205.511Y-93.002
X205.511Y-95.542
X205.511Y-99.606
X205.511Y-102.146
X205.511Y-104.686
X205.511Y-107.226
X205.511Y-109.766
X205.511Y-112.306
X205.511Y-114.846
X205.511Y-117.386
T4
X172.466Y-85.979
X173.99Y-92.71
X173.99Y-95.25
X173.99Y-97.79
X173.99Y-100.33
X175.006Y-85.979
T0
M30
