%FSLAX45Y45*%
G04 Gerber Fmt 4.5, Leading zero omitted, Abs format (unit mm)*
G04 Created by KiCad (PCBNEW 4.0.6) date Wed Jun 28 23:40:58 2017*
%MOMM*%
%LPD*%
G01*
G04 APERTURE LIST*
%ADD10C,0.127000*%
%ADD11C,0.150000*%
%ADD12C,0.200000*%
%ADD13C,0.300000*%
G04 APERTURE END LIST*
D10*
D11*
X15494000Y-8255000D02*
X15494000Y-10160000D01*
X17780000Y-8255000D02*
X15494000Y-8255000D01*
X18415000Y-7620000D02*
X17780000Y-8255000D01*
X20828000Y-7620000D02*
X18415000Y-7620000D01*
X20828000Y-11811000D02*
X20828000Y-7620000D01*
X20701000Y-11938000D02*
X20828000Y-11811000D01*
X20066000Y-11938000D02*
X20701000Y-11938000D01*
X20066000Y-11176000D02*
X20066000Y-11938000D01*
X19685000Y-10795000D02*
X20066000Y-11176000D01*
X17272000Y-10795000D02*
X19685000Y-10795000D01*
X16637000Y-10160000D02*
X17272000Y-10795000D01*
X15494000Y-10160000D02*
X16637000Y-10160000D01*
D12*
X15982000Y-9378000D02*
X16022000Y-9418000D01*
X16022000Y-9378000D02*
X15982000Y-9418000D01*
X16109000Y-9759000D02*
X16149000Y-9799000D01*
X16149000Y-9759000D02*
X16109000Y-9799000D01*
X16236000Y-8616000D02*
X16276000Y-8656000D01*
X16276000Y-8616000D02*
X16236000Y-8656000D01*
X16236000Y-8997000D02*
X16276000Y-9037000D01*
X16276000Y-8997000D02*
X16236000Y-9037000D01*
X16490000Y-9251000D02*
X16530000Y-9291000D01*
X16530000Y-9251000D02*
X16490000Y-9291000D01*
X17442500Y-8997000D02*
X17482500Y-9037000D01*
X17482500Y-8997000D02*
X17442500Y-9037000D01*
X17633000Y-9759000D02*
X17673000Y-9799000D01*
X17673000Y-9759000D02*
X17633000Y-9799000D01*
X17696500Y-8552500D02*
X17736500Y-8592500D01*
X17736500Y-8552500D02*
X17696500Y-8592500D01*
X17887000Y-8870000D02*
X17927000Y-8910000D01*
X17927000Y-8870000D02*
X17887000Y-8910000D01*
X17887000Y-9251000D02*
X17927000Y-9291000D01*
X17927000Y-9251000D02*
X17887000Y-9291000D01*
X17950500Y-8362000D02*
X17990500Y-8402000D01*
X17990500Y-8362000D02*
X17950500Y-8402000D01*
X18141000Y-8616000D02*
X18181000Y-8656000D01*
X18181000Y-8616000D02*
X18141000Y-8656000D01*
X18204500Y-8108000D02*
X18244500Y-8148000D01*
X18244500Y-8108000D02*
X18204500Y-8148000D01*
X18268000Y-8235000D02*
X18308000Y-8275000D01*
X18308000Y-8235000D02*
X18268000Y-8275000D01*
X18268000Y-9378000D02*
X18308000Y-9418000D01*
X18308000Y-9378000D02*
X18268000Y-9418000D01*
X18395000Y-9759000D02*
X18435000Y-9799000D01*
X18435000Y-9759000D02*
X18395000Y-9799000D01*
X18522000Y-10267000D02*
X18562000Y-10307000D01*
X18562000Y-10267000D02*
X18522000Y-10307000D01*
X18712500Y-8108000D02*
X18752500Y-8148000D01*
X18752500Y-8108000D02*
X18712500Y-8148000D01*
X18966500Y-8997000D02*
X19006500Y-9037000D01*
X19006500Y-8997000D02*
X18966500Y-9037000D01*
X18966500Y-9124000D02*
X19006500Y-9164000D01*
X19006500Y-9124000D02*
X18966500Y-9164000D01*
X18966500Y-9251000D02*
X19006500Y-9291000D01*
X19006500Y-9251000D02*
X18966500Y-9291000D01*
X18966500Y-9505000D02*
X19006500Y-9545000D01*
X19006500Y-9505000D02*
X18966500Y-9545000D01*
X18966500Y-9632000D02*
X19006500Y-9672000D01*
X19006500Y-9632000D02*
X18966500Y-9672000D01*
X18966500Y-9759000D02*
X19006500Y-9799000D01*
X19006500Y-9759000D02*
X18966500Y-9799000D01*
X19093500Y-8933500D02*
X19133500Y-8973500D01*
X19133500Y-8933500D02*
X19093500Y-8973500D01*
X19093500Y-9060500D02*
X19133500Y-9100500D01*
X19133500Y-9060500D02*
X19093500Y-9100500D01*
X19093500Y-9187500D02*
X19133500Y-9227500D01*
X19133500Y-9187500D02*
X19093500Y-9227500D01*
X19093500Y-9505000D02*
X19133500Y-9545000D01*
X19133500Y-9505000D02*
X19093500Y-9545000D01*
X19093500Y-9632000D02*
X19133500Y-9672000D01*
X19133500Y-9632000D02*
X19093500Y-9672000D01*
X19093500Y-9759000D02*
X19133500Y-9799000D01*
X19133500Y-9759000D02*
X19093500Y-9799000D01*
X19157000Y-9314500D02*
X19197000Y-9354500D01*
X19197000Y-9314500D02*
X19157000Y-9354500D01*
X19157000Y-10140000D02*
X19197000Y-10180000D01*
X19197000Y-10140000D02*
X19157000Y-10180000D01*
X19411000Y-9378000D02*
X19451000Y-9418000D01*
X19451000Y-9378000D02*
X19411000Y-9418000D01*
X19601500Y-8171500D02*
X19641500Y-8211500D01*
X19641500Y-8171500D02*
X19601500Y-8211500D01*
X19665000Y-9124000D02*
X19705000Y-9164000D01*
X19705000Y-9124000D02*
X19665000Y-9164000D01*
X19665000Y-9378000D02*
X19705000Y-9418000D01*
X19705000Y-9378000D02*
X19665000Y-9418000D01*
X19728500Y-8616000D02*
X19768500Y-8656000D01*
X19768500Y-8616000D02*
X19728500Y-8656000D01*
X19792000Y-9124000D02*
X19832000Y-9164000D01*
X19832000Y-9124000D02*
X19792000Y-9164000D01*
X19792000Y-9251000D02*
X19832000Y-9291000D01*
X19832000Y-9251000D02*
X19792000Y-9291000D01*
X19792000Y-9378000D02*
X19832000Y-9418000D01*
X19832000Y-9378000D02*
X19792000Y-9418000D01*
X19792000Y-9505000D02*
X19832000Y-9545000D01*
X19832000Y-9505000D02*
X19792000Y-9545000D01*
X19919000Y-10775000D02*
X19959000Y-10815000D01*
X19959000Y-10775000D02*
X19919000Y-10815000D01*
X19982500Y-9759000D02*
X20022500Y-9799000D01*
X20022500Y-9759000D02*
X19982500Y-9799000D01*
X19982500Y-9759000D02*
X20022500Y-9799000D01*
X20022500Y-9759000D02*
X19982500Y-9799000D01*
X20173000Y-8679500D02*
X20213000Y-8719500D01*
X20213000Y-8679500D02*
X20173000Y-8719500D01*
X20173000Y-8997000D02*
X20213000Y-9037000D01*
X20213000Y-8997000D02*
X20173000Y-9037000D01*
X20236500Y-8171500D02*
X20276500Y-8211500D01*
X20276500Y-8171500D02*
X20236500Y-8211500D01*
X20236500Y-9949500D02*
X20276500Y-9989500D01*
X20276500Y-9949500D02*
X20236500Y-9989500D01*
X20236500Y-10267000D02*
X20276500Y-10307000D01*
X20276500Y-10267000D02*
X20236500Y-10307000D01*
X20236500Y-10584500D02*
X20276500Y-10624500D01*
X20276500Y-10584500D02*
X20236500Y-10624500D01*
X20236500Y-10902000D02*
X20276500Y-10942000D01*
X20276500Y-10902000D02*
X20236500Y-10942000D01*
X18836000Y-8509000D02*
G75*
G03X18836000Y-8509000I-40000J0D01*
G01*
X18836000Y-8763000D02*
G75*
G03X18836000Y-8763000I-40000J0D01*
G01*
X18836000Y-9017000D02*
G75*
G03X18836000Y-9017000I-40000J0D01*
G01*
X18836000Y-9271000D02*
G75*
G03X18836000Y-9271000I-40000J0D01*
G01*
X18836000Y-9525000D02*
G75*
G03X18836000Y-9525000I-40000J0D01*
G01*
X18836000Y-9779000D02*
G75*
G03X18836000Y-9779000I-40000J0D01*
G01*
X18836000Y-10033000D02*
G75*
G03X18836000Y-10033000I-40000J0D01*
G01*
X18836000Y-10287000D02*
G75*
G03X18836000Y-10287000I-40000J0D01*
G01*
X19598000Y-8509000D02*
G75*
G03X19598000Y-8509000I-40000J0D01*
G01*
X19598000Y-8763000D02*
G75*
G03X19598000Y-8763000I-40000J0D01*
G01*
X19598000Y-9017000D02*
G75*
G03X19598000Y-9017000I-40000J0D01*
G01*
X19598000Y-9271000D02*
G75*
G03X19598000Y-9271000I-40000J0D01*
G01*
X19598000Y-9525000D02*
G75*
G03X19598000Y-9525000I-40000J0D01*
G01*
X19598000Y-9779000D02*
G75*
G03X19598000Y-9779000I-40000J0D01*
G01*
X19598000Y-10033000D02*
G75*
G03X19598000Y-10033000I-40000J0D01*
G01*
X19598000Y-10287000D02*
G75*
G03X19598000Y-10287000I-40000J0D01*
G01*
X15725140Y-8649970D02*
X15725140Y-8731250D01*
X15684500Y-8690610D02*
X15765780Y-8690610D01*
X15725140Y-8903970D02*
X15725140Y-8985250D01*
X15684500Y-8944610D02*
X15765780Y-8944610D01*
X15725140Y-9157970D02*
X15725140Y-9239250D01*
X15684500Y-9198610D02*
X15765780Y-9198610D01*
X15725140Y-9411970D02*
X15725140Y-9493250D01*
X15684500Y-9452610D02*
X15765780Y-9452610D01*
X15725140Y-9665970D02*
X15725140Y-9747250D01*
X15684500Y-9706610D02*
X15765780Y-9706610D01*
X15725140Y-9919970D02*
X15725140Y-10001250D01*
X15684500Y-9960610D02*
X15765780Y-9960610D01*
X15725140Y-10427970D02*
X15725140Y-10509250D01*
X15684500Y-10468610D02*
X15765780Y-10468610D01*
X15725140Y-10681970D02*
X15725140Y-10763250D01*
X15684500Y-10722610D02*
X15765780Y-10722610D01*
X15725140Y-10935970D02*
X15725140Y-11017250D01*
X15684500Y-10976610D02*
X15765780Y-10976610D01*
X15725140Y-11189970D02*
X15725140Y-11271250D01*
X15684500Y-11230610D02*
X15765780Y-11230610D01*
X15725140Y-11443970D02*
X15725140Y-11525250D01*
X15684500Y-11484610D02*
X15765780Y-11484610D01*
X15725140Y-11697970D02*
X15725140Y-11779250D01*
X15684500Y-11738610D02*
X15765780Y-11738610D01*
X20551140Y-7735570D02*
X20551140Y-7816850D01*
X20510500Y-7776210D02*
X20591780Y-7776210D01*
X20551140Y-7989570D02*
X20551140Y-8070850D01*
X20510500Y-8030210D02*
X20591780Y-8030210D01*
X20551140Y-8243570D02*
X20551140Y-8324850D01*
X20510500Y-8284210D02*
X20591780Y-8284210D01*
X20551140Y-8497570D02*
X20551140Y-8578850D01*
X20510500Y-8538210D02*
X20591780Y-8538210D01*
X20551140Y-8751570D02*
X20551140Y-8832850D01*
X20510500Y-8792210D02*
X20591780Y-8792210D01*
X20551140Y-9005570D02*
X20551140Y-9086850D01*
X20510500Y-9046210D02*
X20591780Y-9046210D01*
X20551140Y-9259570D02*
X20551140Y-9340850D01*
X20510500Y-9300210D02*
X20591780Y-9300210D01*
X20551140Y-9513570D02*
X20551140Y-9594850D01*
X20510500Y-9554210D02*
X20591780Y-9554210D01*
X20551140Y-9919970D02*
X20551140Y-10001250D01*
X20510500Y-9960610D02*
X20591780Y-9960610D01*
X20551140Y-10173970D02*
X20551140Y-10255250D01*
X20510500Y-10214610D02*
X20591780Y-10214610D01*
X20551140Y-10427970D02*
X20551140Y-10509250D01*
X20510500Y-10468610D02*
X20591780Y-10468610D01*
X20551140Y-10681970D02*
X20551140Y-10763250D01*
X20510500Y-10722610D02*
X20591780Y-10722610D01*
X20551140Y-10935970D02*
X20551140Y-11017250D01*
X20510500Y-10976610D02*
X20591780Y-10976610D01*
X20551140Y-11189970D02*
X20551140Y-11271250D01*
X20510500Y-11230610D02*
X20591780Y-11230610D01*
X20551140Y-11443970D02*
X20551140Y-11525250D01*
X20510500Y-11484610D02*
X20591780Y-11484610D01*
X20551140Y-11697970D02*
X20551140Y-11779250D01*
X20510500Y-11738610D02*
X20591780Y-11738610D01*
X17289027Y-8640327D02*
X17289027Y-8555473D01*
X17204173Y-8555473D01*
X17204173Y-8640327D01*
X17289027Y-8640327D01*
X17441427Y-9313427D02*
X17441427Y-9228573D01*
X17356573Y-9228573D01*
X17356573Y-9313427D01*
X17441427Y-9313427D01*
X17441427Y-9567427D02*
X17441427Y-9482573D01*
X17356573Y-9482573D01*
X17356573Y-9567427D01*
X17441427Y-9567427D01*
X17441427Y-9821427D02*
X17441427Y-9736573D01*
X17356573Y-9736573D01*
X17356573Y-9821427D01*
X17441427Y-9821427D01*
X17441427Y-10075427D02*
X17441427Y-9990573D01*
X17356573Y-9990573D01*
X17356573Y-10075427D01*
X17441427Y-10075427D01*
X17543027Y-8640327D02*
X17543027Y-8555473D01*
X17458173Y-8555473D01*
X17458173Y-8640327D01*
X17543027Y-8640327D01*
X15725140Y-6944360D02*
X15883890Y-6785610D01*
X15725140Y-6626860D01*
X15566390Y-6785610D01*
X15725140Y-6944360D01*
X16233140Y-12151360D02*
X16391890Y-11992610D01*
X16233140Y-11833860D01*
X16074390Y-11992610D01*
X16233140Y-12151360D01*
X19027140Y-12151360D02*
X19185890Y-11992610D01*
X19027140Y-11833860D01*
X18868390Y-11992610D01*
X19027140Y-12151360D01*
X20551140Y-7071360D02*
X20709890Y-6912610D01*
X20551140Y-6753860D01*
X20392390Y-6912610D01*
X20551140Y-7071360D01*
D13*
X15757928Y-12411214D02*
X15757928Y-12111214D01*
X15829357Y-12111214D01*
X15872214Y-12125500D01*
X15900786Y-12154071D01*
X15915071Y-12182643D01*
X15929357Y-12239786D01*
X15929357Y-12282643D01*
X15915071Y-12339786D01*
X15900786Y-12368357D01*
X15872214Y-12396929D01*
X15829357Y-12411214D01*
X15757928Y-12411214D01*
X16057928Y-12411214D02*
X16057928Y-12211214D01*
X16057928Y-12268357D02*
X16072214Y-12239786D01*
X16086500Y-12225500D01*
X16115071Y-12211214D01*
X16143643Y-12211214D01*
X16243643Y-12411214D02*
X16243643Y-12211214D01*
X16243643Y-12111214D02*
X16229357Y-12125500D01*
X16243643Y-12139786D01*
X16257928Y-12125500D01*
X16243643Y-12111214D01*
X16243643Y-12139786D01*
X16429357Y-12411214D02*
X16400786Y-12396929D01*
X16386500Y-12368357D01*
X16386500Y-12111214D01*
X16586500Y-12411214D02*
X16557928Y-12396929D01*
X16543643Y-12368357D01*
X16543643Y-12111214D01*
X16929357Y-12411214D02*
X16929357Y-12111214D01*
X17029357Y-12325500D01*
X17129357Y-12111214D01*
X17129357Y-12411214D01*
X17400786Y-12411214D02*
X17400786Y-12254071D01*
X17386500Y-12225500D01*
X17357929Y-12211214D01*
X17300786Y-12211214D01*
X17272214Y-12225500D01*
X17400786Y-12396929D02*
X17372214Y-12411214D01*
X17300786Y-12411214D01*
X17272214Y-12396929D01*
X17257929Y-12368357D01*
X17257929Y-12339786D01*
X17272214Y-12311214D01*
X17300786Y-12296929D01*
X17372214Y-12296929D01*
X17400786Y-12282643D01*
X17543643Y-12211214D02*
X17543643Y-12511214D01*
X17543643Y-12225500D02*
X17572214Y-12211214D01*
X17629357Y-12211214D01*
X17657929Y-12225500D01*
X17672214Y-12239786D01*
X17686500Y-12268357D01*
X17686500Y-12354071D01*
X17672214Y-12382643D01*
X17657929Y-12396929D01*
X17629357Y-12411214D01*
X17572214Y-12411214D01*
X17543643Y-12396929D01*
X17815071Y-12382643D02*
X17829357Y-12396929D01*
X17815071Y-12411214D01*
X17800786Y-12396929D01*
X17815071Y-12382643D01*
X17815071Y-12411214D01*
X17815071Y-12225500D02*
X17829357Y-12239786D01*
X17815071Y-12254071D01*
X17800786Y-12239786D01*
X17815071Y-12225500D01*
X17815071Y-12254071D01*
X15446500Y-12885500D02*
X15486500Y-12925500D01*
X15486500Y-12885500D02*
X15446500Y-12925500D01*
X15815071Y-12741214D02*
X15843643Y-12741214D01*
X15872214Y-12755500D01*
X15886500Y-12769786D01*
X15900786Y-12798357D01*
X15915071Y-12855500D01*
X15915071Y-12926929D01*
X15900786Y-12984071D01*
X15886500Y-13012643D01*
X15872214Y-13026929D01*
X15843643Y-13041214D01*
X15815071Y-13041214D01*
X15786500Y-13026929D01*
X15772214Y-13012643D01*
X15757928Y-12984071D01*
X15743643Y-12926929D01*
X15743643Y-12855500D01*
X15757928Y-12798357D01*
X15772214Y-12769786D01*
X15786500Y-12755500D01*
X15815071Y-12741214D01*
X16043643Y-13012643D02*
X16057928Y-13026929D01*
X16043643Y-13041214D01*
X16029357Y-13026929D01*
X16043643Y-13012643D01*
X16043643Y-13041214D01*
X16315071Y-12841214D02*
X16315071Y-13041214D01*
X16243643Y-12726929D02*
X16172214Y-12941214D01*
X16357928Y-12941214D01*
X16529357Y-12741214D02*
X16557928Y-12741214D01*
X16586500Y-12755500D01*
X16600786Y-12769786D01*
X16615071Y-12798357D01*
X16629357Y-12855500D01*
X16629357Y-12926929D01*
X16615071Y-12984071D01*
X16600786Y-13012643D01*
X16586500Y-13026929D01*
X16557928Y-13041214D01*
X16529357Y-13041214D01*
X16500786Y-13026929D01*
X16486500Y-13012643D01*
X16472214Y-12984071D01*
X16457928Y-12926929D01*
X16457928Y-12855500D01*
X16472214Y-12798357D01*
X16486500Y-12769786D01*
X16500786Y-12755500D01*
X16529357Y-12741214D01*
X16757928Y-13041214D02*
X16757928Y-12841214D01*
X16757928Y-12869786D02*
X16772214Y-12855500D01*
X16800786Y-12841214D01*
X16843643Y-12841214D01*
X16872214Y-12855500D01*
X16886500Y-12884071D01*
X16886500Y-13041214D01*
X16886500Y-12884071D02*
X16900786Y-12855500D01*
X16929357Y-12841214D01*
X16972214Y-12841214D01*
X17000786Y-12855500D01*
X17015071Y-12884071D01*
X17015071Y-13041214D01*
X17157929Y-13041214D02*
X17157929Y-12841214D01*
X17157929Y-12869786D02*
X17172214Y-12855500D01*
X17200786Y-12841214D01*
X17243643Y-12841214D01*
X17272214Y-12855500D01*
X17286500Y-12884071D01*
X17286500Y-13041214D01*
X17286500Y-12884071D02*
X17300786Y-12855500D01*
X17329357Y-12841214D01*
X17372214Y-12841214D01*
X17400786Y-12855500D01*
X17415071Y-12884071D01*
X17415071Y-13041214D01*
X18000786Y-12726929D02*
X17743643Y-13112643D01*
X18386500Y-12741214D02*
X18415071Y-12741214D01*
X18443643Y-12755500D01*
X18457928Y-12769786D01*
X18472214Y-12798357D01*
X18486500Y-12855500D01*
X18486500Y-12926929D01*
X18472214Y-12984071D01*
X18457928Y-13012643D01*
X18443643Y-13026929D01*
X18415071Y-13041214D01*
X18386500Y-13041214D01*
X18357928Y-13026929D01*
X18343643Y-13012643D01*
X18329357Y-12984071D01*
X18315071Y-12926929D01*
X18315071Y-12855500D01*
X18329357Y-12798357D01*
X18343643Y-12769786D01*
X18357928Y-12755500D01*
X18386500Y-12741214D01*
X18615071Y-13012643D02*
X18629357Y-13026929D01*
X18615071Y-13041214D01*
X18600786Y-13026929D01*
X18615071Y-13012643D01*
X18615071Y-13041214D01*
X18815071Y-12741214D02*
X18843643Y-12741214D01*
X18872214Y-12755500D01*
X18886500Y-12769786D01*
X18900786Y-12798357D01*
X18915071Y-12855500D01*
X18915071Y-12926929D01*
X18900786Y-12984071D01*
X18886500Y-13012643D01*
X18872214Y-13026929D01*
X18843643Y-13041214D01*
X18815071Y-13041214D01*
X18786500Y-13026929D01*
X18772214Y-13012643D01*
X18757928Y-12984071D01*
X18743643Y-12926929D01*
X18743643Y-12855500D01*
X18757928Y-12798357D01*
X18772214Y-12769786D01*
X18786500Y-12755500D01*
X18815071Y-12741214D01*
X19200786Y-13041214D02*
X19029357Y-13041214D01*
X19115071Y-13041214D02*
X19115071Y-12741214D01*
X19086500Y-12784071D01*
X19057928Y-12812643D01*
X19029357Y-12826929D01*
X19457928Y-12741214D02*
X19400786Y-12741214D01*
X19372214Y-12755500D01*
X19357928Y-12769786D01*
X19329357Y-12812643D01*
X19315071Y-12869786D01*
X19315071Y-12984071D01*
X19329357Y-13012643D01*
X19343643Y-13026929D01*
X19372214Y-13041214D01*
X19429357Y-13041214D01*
X19457928Y-13026929D01*
X19472214Y-13012643D01*
X19486500Y-12984071D01*
X19486500Y-12912643D01*
X19472214Y-12884071D01*
X19457928Y-12869786D01*
X19429357Y-12855500D01*
X19372214Y-12855500D01*
X19343643Y-12869786D01*
X19329357Y-12884071D01*
X19315071Y-12912643D01*
X19600786Y-12741214D02*
X19600786Y-12798357D01*
X19715071Y-12741214D02*
X19715071Y-12798357D01*
X20157928Y-13155500D02*
X20143643Y-13141214D01*
X20115071Y-13098357D01*
X20100786Y-13069786D01*
X20086500Y-13026929D01*
X20072214Y-12955500D01*
X20072214Y-12898357D01*
X20086500Y-12826929D01*
X20100786Y-12784071D01*
X20115071Y-12755500D01*
X20143643Y-12712643D01*
X20157928Y-12698357D01*
X20415071Y-12741214D02*
X20272214Y-12741214D01*
X20257928Y-12884071D01*
X20272214Y-12869786D01*
X20300786Y-12855500D01*
X20372214Y-12855500D01*
X20400786Y-12869786D01*
X20415071Y-12884071D01*
X20429357Y-12912643D01*
X20429357Y-12984071D01*
X20415071Y-13012643D01*
X20400786Y-13026929D01*
X20372214Y-13041214D01*
X20300786Y-13041214D01*
X20272214Y-13026929D01*
X20257928Y-13012643D01*
X20715071Y-13041214D02*
X20543643Y-13041214D01*
X20629357Y-13041214D02*
X20629357Y-12741214D01*
X20600786Y-12784071D01*
X20572214Y-12812643D01*
X20543643Y-12826929D01*
X21072214Y-13041214D02*
X21072214Y-12741214D01*
X21200786Y-13041214D02*
X21200786Y-12884071D01*
X21186500Y-12855500D01*
X21157928Y-12841214D01*
X21115071Y-12841214D01*
X21086500Y-12855500D01*
X21072214Y-12869786D01*
X21386500Y-13041214D02*
X21357928Y-13026929D01*
X21343643Y-13012643D01*
X21329357Y-12984071D01*
X21329357Y-12898357D01*
X21343643Y-12869786D01*
X21357928Y-12855500D01*
X21386500Y-12841214D01*
X21429357Y-12841214D01*
X21457928Y-12855500D01*
X21472214Y-12869786D01*
X21486500Y-12898357D01*
X21486500Y-12984071D01*
X21472214Y-13012643D01*
X21457928Y-13026929D01*
X21429357Y-13041214D01*
X21386500Y-13041214D01*
X21657928Y-13041214D02*
X21629357Y-13026929D01*
X21615071Y-12998357D01*
X21615071Y-12741214D01*
X21886500Y-13026929D02*
X21857929Y-13041214D01*
X21800786Y-13041214D01*
X21772214Y-13026929D01*
X21757929Y-12998357D01*
X21757929Y-12884071D01*
X21772214Y-12855500D01*
X21800786Y-12841214D01*
X21857929Y-12841214D01*
X21886500Y-12855500D01*
X21900786Y-12884071D01*
X21900786Y-12912643D01*
X21757929Y-12941214D01*
X22015071Y-13026929D02*
X22043643Y-13041214D01*
X22100786Y-13041214D01*
X22129357Y-13026929D01*
X22143643Y-12998357D01*
X22143643Y-12984071D01*
X22129357Y-12955500D01*
X22100786Y-12941214D01*
X22057929Y-12941214D01*
X22029357Y-12926929D01*
X22015071Y-12898357D01*
X22015071Y-12884071D01*
X22029357Y-12855500D01*
X22057929Y-12841214D01*
X22100786Y-12841214D01*
X22129357Y-12855500D01*
X22243643Y-13155500D02*
X22257929Y-13141214D01*
X22286500Y-13098357D01*
X22300786Y-13069786D01*
X22315071Y-13026929D01*
X22329357Y-12955500D01*
X22329357Y-12898357D01*
X22315071Y-12826929D01*
X22300786Y-12784071D01*
X22286500Y-12755500D01*
X22257929Y-12712643D01*
X22243643Y-12698357D01*
X15486500Y-13301500D02*
G75*
G03X15486500Y-13301500I-40000J0D01*
G01*
X15815071Y-13137214D02*
X15843643Y-13137214D01*
X15872214Y-13151500D01*
X15886500Y-13165786D01*
X15900786Y-13194357D01*
X15915071Y-13251500D01*
X15915071Y-13322929D01*
X15900786Y-13380071D01*
X15886500Y-13408643D01*
X15872214Y-13422929D01*
X15843643Y-13437214D01*
X15815071Y-13437214D01*
X15786500Y-13422929D01*
X15772214Y-13408643D01*
X15757928Y-13380071D01*
X15743643Y-13322929D01*
X15743643Y-13251500D01*
X15757928Y-13194357D01*
X15772214Y-13165786D01*
X15786500Y-13151500D01*
X15815071Y-13137214D01*
X16043643Y-13408643D02*
X16057928Y-13422929D01*
X16043643Y-13437214D01*
X16029357Y-13422929D01*
X16043643Y-13408643D01*
X16043643Y-13437214D01*
X16229357Y-13265786D02*
X16200786Y-13251500D01*
X16186500Y-13237214D01*
X16172214Y-13208643D01*
X16172214Y-13194357D01*
X16186500Y-13165786D01*
X16200786Y-13151500D01*
X16229357Y-13137214D01*
X16286500Y-13137214D01*
X16315071Y-13151500D01*
X16329357Y-13165786D01*
X16343643Y-13194357D01*
X16343643Y-13208643D01*
X16329357Y-13237214D01*
X16315071Y-13251500D01*
X16286500Y-13265786D01*
X16229357Y-13265786D01*
X16200786Y-13280071D01*
X16186500Y-13294357D01*
X16172214Y-13322929D01*
X16172214Y-13380071D01*
X16186500Y-13408643D01*
X16200786Y-13422929D01*
X16229357Y-13437214D01*
X16286500Y-13437214D01*
X16315071Y-13422929D01*
X16329357Y-13408643D01*
X16343643Y-13380071D01*
X16343643Y-13322929D01*
X16329357Y-13294357D01*
X16315071Y-13280071D01*
X16286500Y-13265786D01*
X16529357Y-13137214D02*
X16557928Y-13137214D01*
X16586500Y-13151500D01*
X16600786Y-13165786D01*
X16615071Y-13194357D01*
X16629357Y-13251500D01*
X16629357Y-13322929D01*
X16615071Y-13380071D01*
X16600786Y-13408643D01*
X16586500Y-13422929D01*
X16557928Y-13437214D01*
X16529357Y-13437214D01*
X16500786Y-13422929D01*
X16486500Y-13408643D01*
X16472214Y-13380071D01*
X16457928Y-13322929D01*
X16457928Y-13251500D01*
X16472214Y-13194357D01*
X16486500Y-13165786D01*
X16500786Y-13151500D01*
X16529357Y-13137214D01*
X16757928Y-13437214D02*
X16757928Y-13237214D01*
X16757928Y-13265786D02*
X16772214Y-13251500D01*
X16800786Y-13237214D01*
X16843643Y-13237214D01*
X16872214Y-13251500D01*
X16886500Y-13280071D01*
X16886500Y-13437214D01*
X16886500Y-13280071D02*
X16900786Y-13251500D01*
X16929357Y-13237214D01*
X16972214Y-13237214D01*
X17000786Y-13251500D01*
X17015071Y-13280071D01*
X17015071Y-13437214D01*
X17157929Y-13437214D02*
X17157929Y-13237214D01*
X17157929Y-13265786D02*
X17172214Y-13251500D01*
X17200786Y-13237214D01*
X17243643Y-13237214D01*
X17272214Y-13251500D01*
X17286500Y-13280071D01*
X17286500Y-13437214D01*
X17286500Y-13280071D02*
X17300786Y-13251500D01*
X17329357Y-13237214D01*
X17372214Y-13237214D01*
X17400786Y-13251500D01*
X17415071Y-13280071D01*
X17415071Y-13437214D01*
X18000786Y-13122929D02*
X17743643Y-13508643D01*
X18386500Y-13137214D02*
X18415071Y-13137214D01*
X18443643Y-13151500D01*
X18457928Y-13165786D01*
X18472214Y-13194357D01*
X18486500Y-13251500D01*
X18486500Y-13322929D01*
X18472214Y-13380071D01*
X18457928Y-13408643D01*
X18443643Y-13422929D01*
X18415071Y-13437214D01*
X18386500Y-13437214D01*
X18357928Y-13422929D01*
X18343643Y-13408643D01*
X18329357Y-13380071D01*
X18315071Y-13322929D01*
X18315071Y-13251500D01*
X18329357Y-13194357D01*
X18343643Y-13165786D01*
X18357928Y-13151500D01*
X18386500Y-13137214D01*
X18615071Y-13408643D02*
X18629357Y-13422929D01*
X18615071Y-13437214D01*
X18600786Y-13422929D01*
X18615071Y-13408643D01*
X18615071Y-13437214D01*
X18815071Y-13137214D02*
X18843643Y-13137214D01*
X18872214Y-13151500D01*
X18886500Y-13165786D01*
X18900786Y-13194357D01*
X18915071Y-13251500D01*
X18915071Y-13322929D01*
X18900786Y-13380071D01*
X18886500Y-13408643D01*
X18872214Y-13422929D01*
X18843643Y-13437214D01*
X18815071Y-13437214D01*
X18786500Y-13422929D01*
X18772214Y-13408643D01*
X18757928Y-13380071D01*
X18743643Y-13322929D01*
X18743643Y-13251500D01*
X18757928Y-13194357D01*
X18772214Y-13165786D01*
X18786500Y-13151500D01*
X18815071Y-13137214D01*
X19015071Y-13137214D02*
X19200786Y-13137214D01*
X19100786Y-13251500D01*
X19143643Y-13251500D01*
X19172214Y-13265786D01*
X19186500Y-13280071D01*
X19200786Y-13308643D01*
X19200786Y-13380071D01*
X19186500Y-13408643D01*
X19172214Y-13422929D01*
X19143643Y-13437214D01*
X19057928Y-13437214D01*
X19029357Y-13422929D01*
X19015071Y-13408643D01*
X19486500Y-13437214D02*
X19315071Y-13437214D01*
X19400786Y-13437214D02*
X19400786Y-13137214D01*
X19372214Y-13180071D01*
X19343643Y-13208643D01*
X19315071Y-13222929D01*
X19600786Y-13137214D02*
X19600786Y-13194357D01*
X19715071Y-13137214D02*
X19715071Y-13194357D01*
X20157928Y-13551500D02*
X20143643Y-13537214D01*
X20115071Y-13494357D01*
X20100786Y-13465786D01*
X20086500Y-13422929D01*
X20072214Y-13351500D01*
X20072214Y-13294357D01*
X20086500Y-13222929D01*
X20100786Y-13180071D01*
X20115071Y-13151500D01*
X20143643Y-13108643D01*
X20157928Y-13094357D01*
X20429357Y-13437214D02*
X20257928Y-13437214D01*
X20343643Y-13437214D02*
X20343643Y-13137214D01*
X20315071Y-13180071D01*
X20286500Y-13208643D01*
X20257928Y-13222929D01*
X20686500Y-13137214D02*
X20629357Y-13137214D01*
X20600786Y-13151500D01*
X20586500Y-13165786D01*
X20557928Y-13208643D01*
X20543643Y-13265786D01*
X20543643Y-13380071D01*
X20557928Y-13408643D01*
X20572214Y-13422929D01*
X20600786Y-13437214D01*
X20657928Y-13437214D01*
X20686500Y-13422929D01*
X20700786Y-13408643D01*
X20715071Y-13380071D01*
X20715071Y-13308643D01*
X20700786Y-13280071D01*
X20686500Y-13265786D01*
X20657928Y-13251500D01*
X20600786Y-13251500D01*
X20572214Y-13265786D01*
X20557928Y-13280071D01*
X20543643Y-13308643D01*
X21072214Y-13437214D02*
X21072214Y-13137214D01*
X21200786Y-13437214D02*
X21200786Y-13280071D01*
X21186500Y-13251500D01*
X21157928Y-13237214D01*
X21115071Y-13237214D01*
X21086500Y-13251500D01*
X21072214Y-13265786D01*
X21386500Y-13437214D02*
X21357928Y-13422929D01*
X21343643Y-13408643D01*
X21329357Y-13380071D01*
X21329357Y-13294357D01*
X21343643Y-13265786D01*
X21357928Y-13251500D01*
X21386500Y-13237214D01*
X21429357Y-13237214D01*
X21457928Y-13251500D01*
X21472214Y-13265786D01*
X21486500Y-13294357D01*
X21486500Y-13380071D01*
X21472214Y-13408643D01*
X21457928Y-13422929D01*
X21429357Y-13437214D01*
X21386500Y-13437214D01*
X21657928Y-13437214D02*
X21629357Y-13422929D01*
X21615071Y-13394357D01*
X21615071Y-13137214D01*
X21886500Y-13422929D02*
X21857929Y-13437214D01*
X21800786Y-13437214D01*
X21772214Y-13422929D01*
X21757929Y-13394357D01*
X21757929Y-13280071D01*
X21772214Y-13251500D01*
X21800786Y-13237214D01*
X21857929Y-13237214D01*
X21886500Y-13251500D01*
X21900786Y-13280071D01*
X21900786Y-13308643D01*
X21757929Y-13337214D01*
X22015071Y-13422929D02*
X22043643Y-13437214D01*
X22100786Y-13437214D01*
X22129357Y-13422929D01*
X22143643Y-13394357D01*
X22143643Y-13380071D01*
X22129357Y-13351500D01*
X22100786Y-13337214D01*
X22057929Y-13337214D01*
X22029357Y-13322929D01*
X22015071Y-13294357D01*
X22015071Y-13280071D01*
X22029357Y-13251500D01*
X22057929Y-13237214D01*
X22100786Y-13237214D01*
X22129357Y-13251500D01*
X22243643Y-13551500D02*
X22257929Y-13537214D01*
X22286500Y-13494357D01*
X22300786Y-13465786D01*
X22315071Y-13422929D01*
X22329357Y-13351500D01*
X22329357Y-13294357D01*
X22315071Y-13222929D01*
X22300786Y-13180071D01*
X22286500Y-13151500D01*
X22257929Y-13108643D01*
X22243643Y-13094357D01*
X15445860Y-13656860D02*
X15445860Y-13738140D01*
X15405220Y-13697500D02*
X15486500Y-13697500D01*
X15815071Y-13533214D02*
X15843643Y-13533214D01*
X15872214Y-13547500D01*
X15886500Y-13561786D01*
X15900786Y-13590357D01*
X15915071Y-13647500D01*
X15915071Y-13718929D01*
X15900786Y-13776071D01*
X15886500Y-13804643D01*
X15872214Y-13818929D01*
X15843643Y-13833214D01*
X15815071Y-13833214D01*
X15786500Y-13818929D01*
X15772214Y-13804643D01*
X15757928Y-13776071D01*
X15743643Y-13718929D01*
X15743643Y-13647500D01*
X15757928Y-13590357D01*
X15772214Y-13561786D01*
X15786500Y-13547500D01*
X15815071Y-13533214D01*
X16043643Y-13804643D02*
X16057928Y-13818929D01*
X16043643Y-13833214D01*
X16029357Y-13818929D01*
X16043643Y-13804643D01*
X16043643Y-13833214D01*
X16229357Y-13661786D02*
X16200786Y-13647500D01*
X16186500Y-13633214D01*
X16172214Y-13604643D01*
X16172214Y-13590357D01*
X16186500Y-13561786D01*
X16200786Y-13547500D01*
X16229357Y-13533214D01*
X16286500Y-13533214D01*
X16315071Y-13547500D01*
X16329357Y-13561786D01*
X16343643Y-13590357D01*
X16343643Y-13604643D01*
X16329357Y-13633214D01*
X16315071Y-13647500D01*
X16286500Y-13661786D01*
X16229357Y-13661786D01*
X16200786Y-13676071D01*
X16186500Y-13690357D01*
X16172214Y-13718929D01*
X16172214Y-13776071D01*
X16186500Y-13804643D01*
X16200786Y-13818929D01*
X16229357Y-13833214D01*
X16286500Y-13833214D01*
X16315071Y-13818929D01*
X16329357Y-13804643D01*
X16343643Y-13776071D01*
X16343643Y-13718929D01*
X16329357Y-13690357D01*
X16315071Y-13676071D01*
X16286500Y-13661786D01*
X16629357Y-13833214D02*
X16457928Y-13833214D01*
X16543643Y-13833214D02*
X16543643Y-13533214D01*
X16515071Y-13576071D01*
X16486500Y-13604643D01*
X16457928Y-13618929D01*
X16757928Y-13833214D02*
X16757928Y-13633214D01*
X16757928Y-13661786D02*
X16772214Y-13647500D01*
X16800786Y-13633214D01*
X16843643Y-13633214D01*
X16872214Y-13647500D01*
X16886500Y-13676071D01*
X16886500Y-13833214D01*
X16886500Y-13676071D02*
X16900786Y-13647500D01*
X16929357Y-13633214D01*
X16972214Y-13633214D01*
X17000786Y-13647500D01*
X17015071Y-13676071D01*
X17015071Y-13833214D01*
X17157929Y-13833214D02*
X17157929Y-13633214D01*
X17157929Y-13661786D02*
X17172214Y-13647500D01*
X17200786Y-13633214D01*
X17243643Y-13633214D01*
X17272214Y-13647500D01*
X17286500Y-13676071D01*
X17286500Y-13833214D01*
X17286500Y-13676071D02*
X17300786Y-13647500D01*
X17329357Y-13633214D01*
X17372214Y-13633214D01*
X17400786Y-13647500D01*
X17415071Y-13676071D01*
X17415071Y-13833214D01*
X18000786Y-13518929D02*
X17743643Y-13904643D01*
X18386500Y-13533214D02*
X18415071Y-13533214D01*
X18443643Y-13547500D01*
X18457928Y-13561786D01*
X18472214Y-13590357D01*
X18486500Y-13647500D01*
X18486500Y-13718929D01*
X18472214Y-13776071D01*
X18457928Y-13804643D01*
X18443643Y-13818929D01*
X18415071Y-13833214D01*
X18386500Y-13833214D01*
X18357928Y-13818929D01*
X18343643Y-13804643D01*
X18329357Y-13776071D01*
X18315071Y-13718929D01*
X18315071Y-13647500D01*
X18329357Y-13590357D01*
X18343643Y-13561786D01*
X18357928Y-13547500D01*
X18386500Y-13533214D01*
X18615071Y-13804643D02*
X18629357Y-13818929D01*
X18615071Y-13833214D01*
X18600786Y-13818929D01*
X18615071Y-13804643D01*
X18615071Y-13833214D01*
X18815071Y-13533214D02*
X18843643Y-13533214D01*
X18872214Y-13547500D01*
X18886500Y-13561786D01*
X18900786Y-13590357D01*
X18915071Y-13647500D01*
X18915071Y-13718929D01*
X18900786Y-13776071D01*
X18886500Y-13804643D01*
X18872214Y-13818929D01*
X18843643Y-13833214D01*
X18815071Y-13833214D01*
X18786500Y-13818929D01*
X18772214Y-13804643D01*
X18757928Y-13776071D01*
X18743643Y-13718929D01*
X18743643Y-13647500D01*
X18757928Y-13590357D01*
X18772214Y-13561786D01*
X18786500Y-13547500D01*
X18815071Y-13533214D01*
X19015071Y-13533214D02*
X19200786Y-13533214D01*
X19100786Y-13647500D01*
X19143643Y-13647500D01*
X19172214Y-13661786D01*
X19186500Y-13676071D01*
X19200786Y-13704643D01*
X19200786Y-13776071D01*
X19186500Y-13804643D01*
X19172214Y-13818929D01*
X19143643Y-13833214D01*
X19057928Y-13833214D01*
X19029357Y-13818929D01*
X19015071Y-13804643D01*
X19315071Y-13561786D02*
X19329357Y-13547500D01*
X19357928Y-13533214D01*
X19429357Y-13533214D01*
X19457928Y-13547500D01*
X19472214Y-13561786D01*
X19486500Y-13590357D01*
X19486500Y-13618929D01*
X19472214Y-13661786D01*
X19300786Y-13833214D01*
X19486500Y-13833214D01*
X19600786Y-13533214D02*
X19600786Y-13590357D01*
X19715071Y-13533214D02*
X19715071Y-13590357D01*
X20157928Y-13947500D02*
X20143643Y-13933214D01*
X20115071Y-13890357D01*
X20100786Y-13861786D01*
X20086500Y-13818929D01*
X20072214Y-13747500D01*
X20072214Y-13690357D01*
X20086500Y-13618929D01*
X20100786Y-13576071D01*
X20115071Y-13547500D01*
X20143643Y-13504643D01*
X20157928Y-13490357D01*
X20257928Y-13561786D02*
X20272214Y-13547500D01*
X20300786Y-13533214D01*
X20372214Y-13533214D01*
X20400786Y-13547500D01*
X20415071Y-13561786D01*
X20429357Y-13590357D01*
X20429357Y-13618929D01*
X20415071Y-13661786D01*
X20243643Y-13833214D01*
X20429357Y-13833214D01*
X20600786Y-13661786D02*
X20572214Y-13647500D01*
X20557928Y-13633214D01*
X20543643Y-13604643D01*
X20543643Y-13590357D01*
X20557928Y-13561786D01*
X20572214Y-13547500D01*
X20600786Y-13533214D01*
X20657928Y-13533214D01*
X20686500Y-13547500D01*
X20700786Y-13561786D01*
X20715071Y-13590357D01*
X20715071Y-13604643D01*
X20700786Y-13633214D01*
X20686500Y-13647500D01*
X20657928Y-13661786D01*
X20600786Y-13661786D01*
X20572214Y-13676071D01*
X20557928Y-13690357D01*
X20543643Y-13718929D01*
X20543643Y-13776071D01*
X20557928Y-13804643D01*
X20572214Y-13818929D01*
X20600786Y-13833214D01*
X20657928Y-13833214D01*
X20686500Y-13818929D01*
X20700786Y-13804643D01*
X20715071Y-13776071D01*
X20715071Y-13718929D01*
X20700786Y-13690357D01*
X20686500Y-13676071D01*
X20657928Y-13661786D01*
X21072214Y-13833214D02*
X21072214Y-13533214D01*
X21200786Y-13833214D02*
X21200786Y-13676071D01*
X21186500Y-13647500D01*
X21157928Y-13633214D01*
X21115071Y-13633214D01*
X21086500Y-13647500D01*
X21072214Y-13661786D01*
X21386500Y-13833214D02*
X21357928Y-13818929D01*
X21343643Y-13804643D01*
X21329357Y-13776071D01*
X21329357Y-13690357D01*
X21343643Y-13661786D01*
X21357928Y-13647500D01*
X21386500Y-13633214D01*
X21429357Y-13633214D01*
X21457928Y-13647500D01*
X21472214Y-13661786D01*
X21486500Y-13690357D01*
X21486500Y-13776071D01*
X21472214Y-13804643D01*
X21457928Y-13818929D01*
X21429357Y-13833214D01*
X21386500Y-13833214D01*
X21657928Y-13833214D02*
X21629357Y-13818929D01*
X21615071Y-13790357D01*
X21615071Y-13533214D01*
X21886500Y-13818929D02*
X21857929Y-13833214D01*
X21800786Y-13833214D01*
X21772214Y-13818929D01*
X21757929Y-13790357D01*
X21757929Y-13676071D01*
X21772214Y-13647500D01*
X21800786Y-13633214D01*
X21857929Y-13633214D01*
X21886500Y-13647500D01*
X21900786Y-13676071D01*
X21900786Y-13704643D01*
X21757929Y-13733214D01*
X22015071Y-13818929D02*
X22043643Y-13833214D01*
X22100786Y-13833214D01*
X22129357Y-13818929D01*
X22143643Y-13790357D01*
X22143643Y-13776071D01*
X22129357Y-13747500D01*
X22100786Y-13733214D01*
X22057929Y-13733214D01*
X22029357Y-13718929D01*
X22015071Y-13690357D01*
X22015071Y-13676071D01*
X22029357Y-13647500D01*
X22057929Y-13633214D01*
X22100786Y-13633214D01*
X22129357Y-13647500D01*
X22243643Y-13947500D02*
X22257929Y-13933214D01*
X22286500Y-13890357D01*
X22300786Y-13861786D01*
X22315071Y-13818929D01*
X22329357Y-13747500D01*
X22329357Y-13690357D01*
X22315071Y-13618929D01*
X22300786Y-13576071D01*
X22286500Y-13547500D01*
X22257929Y-13504643D01*
X22243643Y-13490357D01*
X15468927Y-14135927D02*
X15468927Y-14051073D01*
X15384073Y-14051073D01*
X15384073Y-14135927D01*
X15468927Y-14135927D01*
X15915071Y-14229214D02*
X15743643Y-14229214D01*
X15829357Y-14229214D02*
X15829357Y-13929214D01*
X15800786Y-13972071D01*
X15772214Y-14000643D01*
X15743643Y-14014929D01*
X16043643Y-14200643D02*
X16057928Y-14214929D01*
X16043643Y-14229214D01*
X16029357Y-14214929D01*
X16043643Y-14200643D01*
X16043643Y-14229214D01*
X16172214Y-13957786D02*
X16186500Y-13943500D01*
X16215071Y-13929214D01*
X16286500Y-13929214D01*
X16315071Y-13943500D01*
X16329357Y-13957786D01*
X16343643Y-13986357D01*
X16343643Y-14014929D01*
X16329357Y-14057786D01*
X16157928Y-14229214D01*
X16343643Y-14229214D01*
X16529357Y-13929214D02*
X16557928Y-13929214D01*
X16586500Y-13943500D01*
X16600786Y-13957786D01*
X16615071Y-13986357D01*
X16629357Y-14043500D01*
X16629357Y-14114929D01*
X16615071Y-14172071D01*
X16600786Y-14200643D01*
X16586500Y-14214929D01*
X16557928Y-14229214D01*
X16529357Y-14229214D01*
X16500786Y-14214929D01*
X16486500Y-14200643D01*
X16472214Y-14172071D01*
X16457928Y-14114929D01*
X16457928Y-14043500D01*
X16472214Y-13986357D01*
X16486500Y-13957786D01*
X16500786Y-13943500D01*
X16529357Y-13929214D01*
X16757928Y-14229214D02*
X16757928Y-14029214D01*
X16757928Y-14057786D02*
X16772214Y-14043500D01*
X16800786Y-14029214D01*
X16843643Y-14029214D01*
X16872214Y-14043500D01*
X16886500Y-14072071D01*
X16886500Y-14229214D01*
X16886500Y-14072071D02*
X16900786Y-14043500D01*
X16929357Y-14029214D01*
X16972214Y-14029214D01*
X17000786Y-14043500D01*
X17015071Y-14072071D01*
X17015071Y-14229214D01*
X17157929Y-14229214D02*
X17157929Y-14029214D01*
X17157929Y-14057786D02*
X17172214Y-14043500D01*
X17200786Y-14029214D01*
X17243643Y-14029214D01*
X17272214Y-14043500D01*
X17286500Y-14072071D01*
X17286500Y-14229214D01*
X17286500Y-14072071D02*
X17300786Y-14043500D01*
X17329357Y-14029214D01*
X17372214Y-14029214D01*
X17400786Y-14043500D01*
X17415071Y-14072071D01*
X17415071Y-14229214D01*
X18000786Y-13914929D02*
X17743643Y-14300643D01*
X18386500Y-13929214D02*
X18415071Y-13929214D01*
X18443643Y-13943500D01*
X18457928Y-13957786D01*
X18472214Y-13986357D01*
X18486500Y-14043500D01*
X18486500Y-14114929D01*
X18472214Y-14172071D01*
X18457928Y-14200643D01*
X18443643Y-14214929D01*
X18415071Y-14229214D01*
X18386500Y-14229214D01*
X18357928Y-14214929D01*
X18343643Y-14200643D01*
X18329357Y-14172071D01*
X18315071Y-14114929D01*
X18315071Y-14043500D01*
X18329357Y-13986357D01*
X18343643Y-13957786D01*
X18357928Y-13943500D01*
X18386500Y-13929214D01*
X18615071Y-14200643D02*
X18629357Y-14214929D01*
X18615071Y-14229214D01*
X18600786Y-14214929D01*
X18615071Y-14200643D01*
X18615071Y-14229214D01*
X18815071Y-13929214D02*
X18843643Y-13929214D01*
X18872214Y-13943500D01*
X18886500Y-13957786D01*
X18900786Y-13986357D01*
X18915071Y-14043500D01*
X18915071Y-14114929D01*
X18900786Y-14172071D01*
X18886500Y-14200643D01*
X18872214Y-14214929D01*
X18843643Y-14229214D01*
X18815071Y-14229214D01*
X18786500Y-14214929D01*
X18772214Y-14200643D01*
X18757928Y-14172071D01*
X18743643Y-14114929D01*
X18743643Y-14043500D01*
X18757928Y-13986357D01*
X18772214Y-13957786D01*
X18786500Y-13943500D01*
X18815071Y-13929214D01*
X19172214Y-14029214D02*
X19172214Y-14229214D01*
X19100786Y-13914929D02*
X19029357Y-14129214D01*
X19215071Y-14129214D01*
X19300786Y-13929214D02*
X19500786Y-13929214D01*
X19372214Y-14229214D01*
X19600786Y-13929214D02*
X19600786Y-13986357D01*
X19715071Y-13929214D02*
X19715071Y-13986357D01*
X20157928Y-14343500D02*
X20143643Y-14329214D01*
X20115071Y-14286357D01*
X20100786Y-14257786D01*
X20086500Y-14214929D01*
X20072214Y-14143500D01*
X20072214Y-14086357D01*
X20086500Y-14014929D01*
X20100786Y-13972071D01*
X20115071Y-13943500D01*
X20143643Y-13900643D01*
X20157928Y-13886357D01*
X20400786Y-13929214D02*
X20343643Y-13929214D01*
X20315071Y-13943500D01*
X20300786Y-13957786D01*
X20272214Y-14000643D01*
X20257928Y-14057786D01*
X20257928Y-14172071D01*
X20272214Y-14200643D01*
X20286500Y-14214929D01*
X20315071Y-14229214D01*
X20372214Y-14229214D01*
X20400786Y-14214929D01*
X20415071Y-14200643D01*
X20429357Y-14172071D01*
X20429357Y-14100643D01*
X20415071Y-14072071D01*
X20400786Y-14057786D01*
X20372214Y-14043500D01*
X20315071Y-14043500D01*
X20286500Y-14057786D01*
X20272214Y-14072071D01*
X20257928Y-14100643D01*
X20786500Y-14229214D02*
X20786500Y-13929214D01*
X20915071Y-14229214D02*
X20915071Y-14072071D01*
X20900786Y-14043500D01*
X20872214Y-14029214D01*
X20829357Y-14029214D01*
X20800786Y-14043500D01*
X20786500Y-14057786D01*
X21100786Y-14229214D02*
X21072214Y-14214929D01*
X21057928Y-14200643D01*
X21043643Y-14172071D01*
X21043643Y-14086357D01*
X21057928Y-14057786D01*
X21072214Y-14043500D01*
X21100786Y-14029214D01*
X21143643Y-14029214D01*
X21172214Y-14043500D01*
X21186500Y-14057786D01*
X21200786Y-14086357D01*
X21200786Y-14172071D01*
X21186500Y-14200643D01*
X21172214Y-14214929D01*
X21143643Y-14229214D01*
X21100786Y-14229214D01*
X21372214Y-14229214D02*
X21343643Y-14214929D01*
X21329357Y-14186357D01*
X21329357Y-13929214D01*
X21600786Y-14214929D02*
X21572214Y-14229214D01*
X21515071Y-14229214D01*
X21486500Y-14214929D01*
X21472214Y-14186357D01*
X21472214Y-14072071D01*
X21486500Y-14043500D01*
X21515071Y-14029214D01*
X21572214Y-14029214D01*
X21600786Y-14043500D01*
X21615071Y-14072071D01*
X21615071Y-14100643D01*
X21472214Y-14129214D01*
X21729357Y-14214929D02*
X21757929Y-14229214D01*
X21815071Y-14229214D01*
X21843643Y-14214929D01*
X21857929Y-14186357D01*
X21857929Y-14172071D01*
X21843643Y-14143500D01*
X21815071Y-14129214D01*
X21772214Y-14129214D01*
X21743643Y-14114929D01*
X21729357Y-14086357D01*
X21729357Y-14072071D01*
X21743643Y-14043500D01*
X21772214Y-14029214D01*
X21815071Y-14029214D01*
X21843643Y-14043500D01*
X21957928Y-14343500D02*
X21972214Y-14329214D01*
X22000786Y-14286357D01*
X22015071Y-14257786D01*
X22029357Y-14214929D01*
X22043643Y-14143500D01*
X22043643Y-14086357D01*
X22029357Y-14014929D01*
X22015071Y-13972071D01*
X22000786Y-13943500D01*
X21972214Y-13900643D01*
X21957928Y-13886357D01*
X15327750Y-14648250D02*
X15486500Y-14489500D01*
X15327750Y-14330750D01*
X15169000Y-14489500D01*
X15327750Y-14648250D01*
X15729357Y-14325214D02*
X15915071Y-14325214D01*
X15815071Y-14439500D01*
X15857928Y-14439500D01*
X15886500Y-14453786D01*
X15900786Y-14468071D01*
X15915071Y-14496643D01*
X15915071Y-14568071D01*
X15900786Y-14596643D01*
X15886500Y-14610929D01*
X15857928Y-14625214D01*
X15772214Y-14625214D01*
X15743643Y-14610929D01*
X15729357Y-14596643D01*
X16043643Y-14596643D02*
X16057928Y-14610929D01*
X16043643Y-14625214D01*
X16029357Y-14610929D01*
X16043643Y-14596643D01*
X16043643Y-14625214D01*
X16343643Y-14625214D02*
X16172214Y-14625214D01*
X16257928Y-14625214D02*
X16257928Y-14325214D01*
X16229357Y-14368071D01*
X16200786Y-14396643D01*
X16172214Y-14410929D01*
X16443643Y-14325214D02*
X16643643Y-14325214D01*
X16515071Y-14625214D01*
X16757928Y-14625214D02*
X16757928Y-14425214D01*
X16757928Y-14453786D02*
X16772214Y-14439500D01*
X16800786Y-14425214D01*
X16843643Y-14425214D01*
X16872214Y-14439500D01*
X16886500Y-14468071D01*
X16886500Y-14625214D01*
X16886500Y-14468071D02*
X16900786Y-14439500D01*
X16929357Y-14425214D01*
X16972214Y-14425214D01*
X17000786Y-14439500D01*
X17015071Y-14468071D01*
X17015071Y-14625214D01*
X17157929Y-14625214D02*
X17157929Y-14425214D01*
X17157929Y-14453786D02*
X17172214Y-14439500D01*
X17200786Y-14425214D01*
X17243643Y-14425214D01*
X17272214Y-14439500D01*
X17286500Y-14468071D01*
X17286500Y-14625214D01*
X17286500Y-14468071D02*
X17300786Y-14439500D01*
X17329357Y-14425214D01*
X17372214Y-14425214D01*
X17400786Y-14439500D01*
X17415071Y-14468071D01*
X17415071Y-14625214D01*
X18000786Y-14310929D02*
X17743643Y-14696643D01*
X18386500Y-14325214D02*
X18415071Y-14325214D01*
X18443643Y-14339500D01*
X18457928Y-14353786D01*
X18472214Y-14382357D01*
X18486500Y-14439500D01*
X18486500Y-14510929D01*
X18472214Y-14568071D01*
X18457928Y-14596643D01*
X18443643Y-14610929D01*
X18415071Y-14625214D01*
X18386500Y-14625214D01*
X18357928Y-14610929D01*
X18343643Y-14596643D01*
X18329357Y-14568071D01*
X18315071Y-14510929D01*
X18315071Y-14439500D01*
X18329357Y-14382357D01*
X18343643Y-14353786D01*
X18357928Y-14339500D01*
X18386500Y-14325214D01*
X18615071Y-14596643D02*
X18629357Y-14610929D01*
X18615071Y-14625214D01*
X18600786Y-14610929D01*
X18615071Y-14596643D01*
X18615071Y-14625214D01*
X18915071Y-14625214D02*
X18743643Y-14625214D01*
X18829357Y-14625214D02*
X18829357Y-14325214D01*
X18800786Y-14368071D01*
X18772214Y-14396643D01*
X18743643Y-14410929D01*
X19029357Y-14353786D02*
X19043643Y-14339500D01*
X19072214Y-14325214D01*
X19143643Y-14325214D01*
X19172214Y-14339500D01*
X19186500Y-14353786D01*
X19200786Y-14382357D01*
X19200786Y-14410929D01*
X19186500Y-14453786D01*
X19015071Y-14625214D01*
X19200786Y-14625214D01*
X19472214Y-14325214D02*
X19329357Y-14325214D01*
X19315071Y-14468071D01*
X19329357Y-14453786D01*
X19357928Y-14439500D01*
X19429357Y-14439500D01*
X19457928Y-14453786D01*
X19472214Y-14468071D01*
X19486500Y-14496643D01*
X19486500Y-14568071D01*
X19472214Y-14596643D01*
X19457928Y-14610929D01*
X19429357Y-14625214D01*
X19357928Y-14625214D01*
X19329357Y-14610929D01*
X19315071Y-14596643D01*
X19600786Y-14325214D02*
X19600786Y-14382357D01*
X19715071Y-14325214D02*
X19715071Y-14382357D01*
X20157928Y-14739500D02*
X20143643Y-14725214D01*
X20115071Y-14682357D01*
X20100786Y-14653786D01*
X20086500Y-14610929D01*
X20072214Y-14539500D01*
X20072214Y-14482357D01*
X20086500Y-14410929D01*
X20100786Y-14368071D01*
X20115071Y-14339500D01*
X20143643Y-14296643D01*
X20157928Y-14282357D01*
X20400786Y-14425214D02*
X20400786Y-14625214D01*
X20329357Y-14310929D02*
X20257928Y-14525214D01*
X20443643Y-14525214D01*
X20786500Y-14625214D02*
X20786500Y-14325214D01*
X20915071Y-14625214D02*
X20915071Y-14468071D01*
X20900786Y-14439500D01*
X20872214Y-14425214D01*
X20829357Y-14425214D01*
X20800786Y-14439500D01*
X20786500Y-14453786D01*
X21100786Y-14625214D02*
X21072214Y-14610929D01*
X21057928Y-14596643D01*
X21043643Y-14568071D01*
X21043643Y-14482357D01*
X21057928Y-14453786D01*
X21072214Y-14439500D01*
X21100786Y-14425214D01*
X21143643Y-14425214D01*
X21172214Y-14439500D01*
X21186500Y-14453786D01*
X21200786Y-14482357D01*
X21200786Y-14568071D01*
X21186500Y-14596643D01*
X21172214Y-14610929D01*
X21143643Y-14625214D01*
X21100786Y-14625214D01*
X21372214Y-14625214D02*
X21343643Y-14610929D01*
X21329357Y-14582357D01*
X21329357Y-14325214D01*
X21600786Y-14610929D02*
X21572214Y-14625214D01*
X21515071Y-14625214D01*
X21486500Y-14610929D01*
X21472214Y-14582357D01*
X21472214Y-14468071D01*
X21486500Y-14439500D01*
X21515071Y-14425214D01*
X21572214Y-14425214D01*
X21600786Y-14439500D01*
X21615071Y-14468071D01*
X21615071Y-14496643D01*
X21472214Y-14525214D01*
X21729357Y-14610929D02*
X21757929Y-14625214D01*
X21815071Y-14625214D01*
X21843643Y-14610929D01*
X21857929Y-14582357D01*
X21857929Y-14568071D01*
X21843643Y-14539500D01*
X21815071Y-14525214D01*
X21772214Y-14525214D01*
X21743643Y-14510929D01*
X21729357Y-14482357D01*
X21729357Y-14468071D01*
X21743643Y-14439500D01*
X21772214Y-14425214D01*
X21815071Y-14425214D01*
X21843643Y-14439500D01*
X21957928Y-14739500D02*
X21972214Y-14725214D01*
X22000786Y-14682357D01*
X22015071Y-14653786D01*
X22029357Y-14610929D01*
X22043643Y-14539500D01*
X22043643Y-14482357D01*
X22029357Y-14410929D01*
X22015071Y-14368071D01*
X22000786Y-14339500D01*
X21972214Y-14296643D01*
X21957928Y-14282357D01*
M02*
